<?xml version="1.0" encoding="UTF-8" standalone="no"?>
<svg width="115px" height="45px" viewBox="0 0 115 45" version="1.1" xmlns="http://www.w3.org/2000/svg" xmlns:xlink="http://www.w3.org/1999/xlink" xmlns:sketch="http://www.bohemiancoding.com/sketch/ns">
    <!-- Generator: Sketch 3.3.2 (12043) - http://www.bohemiancoding.com/sketch -->
    <title>logo-mobile</title>
    <desc>Created with Sketch.</desc>
    <defs></defs>
    <g id="Page-1" stroke="none" stroke-width="1" fill="none" fill-rule="evenodd" sketch:type="MSPage">
        <g id="logo-mobile" sketch:type="MSLayerGroup">
            <path d="M3.782,1.10502197 L0.341,1.10502197 L3.689,22.805022 L8.773,22.805022 L12.121,1.10502197 L8.99,1.10502197 L6.386,18.806022 L3.782,1.10502197 Z M20.987,22.805022 L24.49,22.805022 L24.49,1.10502197 L21.452,1.10502197 L21.452,14.094022 L17.949,1.10502197 L13.671,1.10502197 L13.671,22.805022 L16.74,22.805022 L16.74,7.08802197 L20.987,22.805022 Z M36.239,0.950021973 C33.108,0.981021973 31.837,3.18202197 31.837,6.31302197 C31.837,12.265022 40.362,11.955022 40.362,17.566022 C40.362,20.356022 39.308,22.650022 36.208,22.650022 C33.108,22.650022 32.054,20.356022 32.054,17.566022 L32.054,16.543022 L31.744,16.543022 L31.744,17.566022 C31.744,20.511022 32.922,22.960022 36.208,22.960022 C39.494,22.960022 40.672,20.511022 40.672,17.566022 C40.672,11.707022 32.147,12.017022 32.147,6.31302197 C32.147,3.58502197 33.17,1.26002197 36.239,1.26002197 C39.308,1.26002197 40.331,3.61602197 40.331,6.34402197 L40.331,6.71602197 L40.641,6.71602197 L40.641,6.34402197 C40.641,3.43002197 39.494,0.950021973 36.239,0.950021973 L36.239,0.950021973 Z M47.864,22.805022 L47.864,1.41502197 L52.762,1.41502197 L52.762,1.10502197 L42.656,1.10502197 L42.656,1.41502197 L47.554,1.41502197 L47.554,22.805022 L47.864,22.805022 Z M63.519,17.535022 L64.883,22.805022 L65.193,22.805022 L59.582,1.07402197 L59.148,1.07402197 L53.661,22.805022 L53.971,22.805022 L55.304,17.535022 L63.519,17.535022 Z M59.365,1.47702197 L63.426,17.225022 L55.397,17.225022 L59.365,1.47702197 Z M67.673,1.10502197 L67.673,22.805022 L67.983,22.805022 L67.983,12.637022 L70.835,12.637022 C73.842,12.637022 75.95,13.474022 75.95,16.822022 L75.95,20.232022 C75.95,21.069022 76.043,22.092022 76.508,22.805022 L76.88,22.805022 C76.353,22.154022 76.26,21.038022 76.26,20.232022 L76.26,16.822022 C76.26,14.404022 75.144,12.854022 72.633,12.513022 C75.144,12.141022 76.26,10.653022 76.26,7.92502197 L76.26,5.97202197 C76.26,3.02702197 75.051,1.10502197 71.858,1.10502197 L67.673,1.10502197 Z M67.983,12.327022 L67.983,1.41502197 L71.858,1.41502197 C74.865,1.41502197 75.95,3.18202197 75.95,5.97202197 L75.95,7.92502197 C75.95,11.521022 74.059,12.327022 70.835,12.327022 L67.983,12.327022 Z" id="vn-star" fill="#333333" sketch:type="MSShapeGroup"></path>
            <path d="M0.54,38.952 C0.54,38.5039978 0.59599944,38.076002 0.708,37.668 C0.82000056,37.259998 0.9959988,36.9000016 1.236,36.588 C1.4760012,36.2759984 1.77799818,36.0280009 2.142,35.844 C2.50600182,35.6599991 2.93999748,35.568 3.444,35.568 C3.62800092,35.568 3.84599874,35.5779999 4.098,35.598 C4.35000126,35.6180001 4.60799868,35.6679996 4.872,35.748 L4.872,33.408 C4.872,33.3279996 4.88599986,33.2780001 4.914,33.258 C4.94200014,33.2379999 4.99199964,33.228 5.064,33.228 L5.736,33.228 C5.80000032,33.228 5.84799984,33.2379999 5.88,33.258 C5.91200016,33.2780001 5.928,33.3279996 5.928,33.408 L5.928,41.484 C5.928,41.5880005 5.88000048,41.6599998 5.784,41.7 C5.36799792,41.8840009 4.94200218,42.0019997 4.506,42.054 C4.06999782,42.1060003 3.6720018,42.132 3.312,42.132 C2.80799748,42.132 2.38200174,42.0580007 2.034,41.91 C1.68599826,41.7619993 1.40000112,41.5500014 1.176,41.274 C0.95199888,40.9979986 0.7900005,40.664002 0.69,40.272 C0.5899995,39.879998 0.54,39.4400024 0.54,38.952 L0.54,38.952 Z M1.62,38.952 C1.62,39.3760021 1.66399956,39.7319986 1.752,40.02 C1.84000044,40.3080014 1.9639992,40.5419991 2.124,40.722 C2.2840008,40.9020009 2.47999884,41.0319996 2.712,41.112 C2.94400116,41.1920004 3.20399856,41.232 3.492,41.232 C3.692001,41.232 3.92599866,41.2120002 4.194,41.172 C4.46200134,41.1319998 4.68799908,41.0800003 4.872,41.016 L4.872,36.672 C4.56799848,36.5839996 4.31200104,36.5280001 4.104,36.504 C3.89599896,36.4799999 3.70000092,36.468 3.516,36.468 C3.24399864,36.468 2.99200116,36.5159995 2.76,36.612 C2.52799884,36.7080005 2.32800084,36.855999 2.16,37.056 C1.99199916,37.256001 1.86000048,37.5119984 1.764,37.824 C1.66799952,38.1360016 1.62,38.5119978 1.62,38.952 L1.62,38.952 Z M10.62,35.568 C11.0760023,35.568 11.4699984,35.6319994 11.802,35.76 C12.1340017,35.8880006 12.405999,36.0699988 12.618,36.306 C12.8300011,36.5420012 12.9879995,36.8219984 13.092,37.146 C13.1960005,37.4700016 13.248,37.827998 13.248,38.22 C13.248,38.412001 13.2240003,38.5679994 13.176,38.688 C13.1279998,38.8080006 13.0620004,38.9019997 12.978,38.97 C12.8939996,39.0380003 12.7980006,39.0859999 12.69,39.114 C12.5819995,39.1420001 12.4680006,39.156 12.348,39.156 L8.90400002,39.156 C8.90400002,39.5320019 8.9559995,39.8519987 9.06000002,40.116 C9.16400054,40.3800013 9.30199916,40.5939992 9.47400002,40.758 C9.64600088,40.9220008 9.84599888,41.0399996 10.074,41.112 C10.3020012,41.1840004 10.5479987,41.22 10.812,41.22 C11.0760013,41.22 11.3359987,41.1860003 11.592,41.118 C11.8480013,41.0499997 12.0599992,40.9720004 12.228,40.884 C12.3240005,40.8279997 12.3999997,40.8479995 12.456,40.944 L12.708,41.448 C12.7640003,41.5600006 12.7400005,41.6399998 12.636,41.688 C12.3479986,41.8640009 12.0380017,41.9819997 11.706,42.042 C11.3739984,42.1020003 11.0480016,42.132 10.728,42.132 C10.2799978,42.132 9.8780018,42.0680006 9.52200002,41.94 C9.16599824,41.8119994 8.86400126,41.6160013 8.61600002,41.352 C8.36799878,41.0879987 8.17800068,40.752002 8.04600002,40.344 C7.91399936,39.935998 7.84800002,39.4480028 7.84800002,38.88 C7.84800002,38.3519974 7.91799932,37.8820021 8.05800002,37.47 C8.19800072,37.0579979 8.39199878,36.7120014 8.64000002,36.432 C8.88800126,36.1519986 9.17999834,35.9380007 9.51600002,35.79 C9.8520017,35.6419993 10.219998,35.568 10.62,35.568 L10.62,35.568 Z M12.264,38.316 C12.264,38.0679988 12.2400003,37.8300011 12.192,37.602 C12.1439998,37.3739989 12.0580006,37.1740009 11.934,37.002 C11.8099994,36.8299991 11.6420011,36.6940005 11.43,36.594 C11.217999,36.4939995 10.9520016,36.444 10.632,36.444 C10.3679987,36.444 10.134001,36.4959995 9.93000002,36.6 C9.725999,36.7040005 9.55400072,36.8419991 9.41400002,37.014 C9.27399932,37.1860009 9.16400042,37.3839989 9.08400002,37.608 C9.00399962,37.8320011 8.9560001,38.0679988 8.94000002,38.316 L12.264,38.316 Z M18.18,41.532 C18.1159997,41.724001 18.0460004,41.8599996 17.97,41.94 C17.8939997,42.0200004 17.764001,42.06 17.58,42.06 L17.112,42.06 C16.9599993,42.06 16.8400005,42.0280003 16.752,41.964 C16.6639996,41.8999997 16.5800004,41.7600011 16.5,41.544 L14.532,35.82 C14.5079999,35.7399996 14.5399996,35.7 14.628,35.7 L15.432,35.7 C15.5200005,35.7 15.5759999,35.7359996 15.6,35.808 L16.728,39.12 L17.328,41.076 L17.388,41.076 L17.964,39.144 L19.056,35.808 C19.0800002,35.7359996 19.1359996,35.7 19.224,35.7 L20.016,35.7 C20.0960004,35.7 20.1280001,35.7399996 20.112,35.82 L18.18,41.532 Z M24.1800001,35.568 C24.6360024,35.568 25.0299984,35.6319994 25.3620001,35.76 C25.6940017,35.8880006 25.965999,36.0699988 26.1780001,36.306 C26.3900011,36.5420012 26.5479996,36.8219984 26.6520001,37.146 C26.7560006,37.4700016 26.8080001,37.827998 26.8080001,38.22 C26.8080001,38.412001 26.7840003,38.5679994 26.7360001,38.688 C26.6879998,38.8080006 26.6220005,38.9019997 26.5380001,38.97 C26.4539997,39.0380003 26.3580006,39.0859999 26.2500001,39.114 C26.1419995,39.1420001 26.0280007,39.156 25.9080001,39.156 L22.4640001,39.156 C22.4640001,39.5320019 22.5159996,39.8519987 22.6200001,40.116 C22.7240006,40.3800013 22.8619992,40.5939992 23.0340001,40.758 C23.2060009,40.9220008 23.4059989,41.0399996 23.6340001,41.112 C23.8620012,41.1840004 24.1079988,41.22 24.3720001,41.22 C24.6360014,41.22 24.8959988,41.1860003 25.1520001,41.118 C25.4080014,41.0499997 25.6199992,40.9720004 25.7880001,40.884 C25.8840006,40.8279997 25.9599998,40.8479995 26.0160001,40.944 L26.2680001,41.448 C26.3240004,41.5600006 26.3000006,41.6399998 26.1960001,41.688 C25.9079986,41.8640009 25.5980017,41.9819997 25.2660001,42.042 C24.9339984,42.1020003 24.6080017,42.132 24.2880001,42.132 C23.8399978,42.132 23.4380019,42.0680006 23.0820001,41.94 C22.7259983,41.8119994 22.4240013,41.6160013 22.1760001,41.352 C21.9279988,41.0879987 21.7380007,40.752002 21.6060001,40.344 C21.4739994,39.935998 21.4080001,39.4480028 21.4080001,38.88 C21.4080001,38.3519974 21.4779994,37.8820021 21.6180001,37.47 C21.7580008,37.0579979 21.9519988,36.7120014 22.2000001,36.432 C22.4480013,36.1519986 22.7399984,35.9380007 23.0760001,35.79 C23.4120018,35.6419993 23.7799981,35.568 24.1800001,35.568 L24.1800001,35.568 Z M25.8240001,38.316 C25.8240001,38.0679988 25.8000003,37.8300011 25.7520001,37.602 C25.7039998,37.3739989 25.6180007,37.1740009 25.4940001,37.002 C25.3699995,36.8299991 25.2020011,36.6940005 24.9900001,36.594 C24.777999,36.4939995 24.5120017,36.444 24.1920001,36.444 C23.9279988,36.444 23.6940011,36.4959995 23.4900001,36.6 C23.2859991,36.7040005 23.1140008,36.8419991 22.9740001,37.014 C22.8339994,37.1860009 22.7240005,37.3839989 22.6440001,37.608 C22.5639997,37.8320011 22.5160002,38.0679988 22.5000001,38.316 L25.8240001,38.316 Z M30.9600001,41.76 C30.9680001,41.8240003 30.9660002,41.8699999 30.9540001,41.898 C30.942,41.9260001 30.9040004,41.9559998 30.8400001,41.988 C30.7039994,42.0520003 30.550001,42.0919999 30.3780001,42.108 C30.2059992,42.1240001 30.0560007,42.132 29.9280001,42.132 C29.5199981,42.132 29.2340009,42.034001 29.0700001,41.838 C28.9059993,41.641999 28.8240001,41.340002 28.8240001,40.932 L28.8240001,33.408 C28.8240001,33.3279996 28.8399999,33.2780001 28.8720001,33.258 C28.9040003,33.2379999 28.9519998,33.228 29.0160001,33.228 L29.6880001,33.228 C29.7600005,33.228 29.81,33.2379999 29.8380001,33.258 C29.8660002,33.2780001 29.8800001,33.3279996 29.8800001,33.408 L29.8800001,40.632 C29.8800001,40.8640012 29.9099998,41.0179996 29.9700001,41.094 C30.0300004,41.1700004 30.1399993,41.208 30.3000001,41.208 C30.3800005,41.208 30.4559997,41.206 30.5280001,41.202 C30.6000005,41.198 30.6679998,41.192 30.7320001,41.184 C30.7880004,41.176 30.828,41.1779999 30.8520001,41.19 C30.8760002,41.2020001 30.8920001,41.2359997 30.9000001,41.292 L30.9600001,41.76 Z M37.9440001,38.82 C37.9440001,39.8920054 37.7020025,40.7119972 37.2180001,41.28 C36.7339977,41.8480028 36.0320047,42.132 35.1120001,42.132 C34.2079956,42.132 33.5200025,41.8560028 33.0480001,41.304 C32.5759978,40.7519972 32.3400001,39.9360054 32.3400001,38.856 C32.3400001,38.3279974 32.4099994,37.860002 32.5500001,37.452 C32.6900008,37.043998 32.8859989,36.7000014 33.1380001,36.42 C33.3900014,36.1399986 33.6879984,35.9280007 34.0320001,35.784 C34.3760018,35.6399993 34.7479981,35.568 35.1480001,35.568 C36.0600047,35.568 36.7539977,35.8559971 37.2300001,36.432 C37.7060025,37.0080029 37.9440001,37.8039949 37.9440001,38.82 L37.9440001,38.82 Z M36.8880001,38.856 C36.8880001,38.5439984 36.8640004,38.2420015 36.8160001,37.95 C36.7679999,37.6579985 36.6800008,37.4020011 36.5520001,37.182 C36.4239995,36.9619989 36.2480012,36.7840007 36.0240001,36.648 C35.799999,36.5119993 35.5120019,36.444 35.1600001,36.444 C34.8559986,36.444 34.5920012,36.5079994 34.3680001,36.636 C34.143999,36.7640006 33.9600008,36.9359989 33.8160001,37.152 C33.6719994,37.3680011 33.5640005,37.6199986 33.4920001,37.908 C33.4199998,38.1960014 33.3840001,38.4999984 33.3840001,38.82 C33.3840001,39.1800018 33.4119998,39.5099985 33.4680001,39.81 C33.5240004,40.1100015 33.6199994,40.3659989 33.7560001,40.578 C33.8920008,40.7900011 34.069999,40.9559994 34.2900001,41.076 C34.5100012,41.1960006 34.7879984,41.256 35.1240001,41.256 C35.4600018,41.256 35.741999,41.1880007 35.9700001,41.052 C36.1980013,40.9159993 36.3799994,40.7360011 36.5160001,40.512 C36.6520008,40.2879989 36.7479998,40.0320014 36.8040001,39.744 C36.8600004,39.4559986 36.8880001,39.1600015 36.8880001,38.856 L36.8880001,38.856 Z M45.2520001,38.844 C45.2520001,39.3000023 45.1940007,39.725998 45.0780001,40.122 C44.9619996,40.518002 44.7900013,40.8659985 44.5620001,41.166 C44.333999,41.4660015 44.0440019,41.7019991 43.6920001,41.874 C43.3399984,42.0460009 42.9320025,42.132 42.4680001,42.132 C42.243999,42.132 42.0020014,42.1200001 41.7420001,42.096 C41.4819988,42.0719999 41.2040016,42.0160004 40.9080001,41.928 L40.9080001,44.256 C40.9080001,44.3280004 40.8940003,44.3739999 40.8660001,44.394 C40.838,44.4140001 40.7920005,44.424 40.7280001,44.424 L40.0560001,44.424 C39.9919998,44.424 39.9440003,44.4140001 39.9120001,44.394 C39.88,44.3739999 39.8640001,44.3280004 39.8640001,44.256 L39.8640001,36.216 C39.8640001,36.1119995 39.9119997,36.0440002 40.0080001,36.012 C40.4080021,35.8359991 40.819998,35.7180003 41.2440001,35.658 C41.6680023,35.5979997 42.0719982,35.568 42.4560001,35.568 C42.9360025,35.568 43.3519984,35.6499992 43.7040001,35.814 C44.0560019,35.9780008 44.345999,36.2059985 44.5740001,36.498 C44.8020013,36.7900015 44.9719996,37.135998 45.0840001,37.536 C45.1960007,37.936002 45.2520001,38.3719976 45.2520001,38.844 L45.2520001,38.844 Z M44.1600001,38.844 C44.1600001,38.4039978 44.1160006,38.0320015 44.0280001,37.728 C43.9399997,37.4239985 43.814001,37.1800009 43.6500001,36.996 C43.4859993,36.8119991 43.2900013,36.6780004 43.0620001,36.594 C42.833999,36.5099996 42.5760016,36.468 42.2880001,36.468 C42.0799991,36.468 41.8440015,36.4879998 41.5800001,36.528 C41.3159988,36.5680002 41.0920011,36.6239996 40.9080001,36.696 L40.9080001,41.016 C41.2120017,41.1040004 41.473999,41.1619999 41.6940001,41.19 C41.9140012,41.2180001 42.1159992,41.232 42.3000001,41.232 C42.5720015,41.232 42.821999,41.1900004 43.0500001,41.106 C43.2780013,41.0219996 43.4739993,40.8860009 43.6380001,40.698 C43.802001,40.5099991 43.9299997,40.2640015 44.0220001,39.96 C44.1140006,39.6559985 44.1600001,39.2840022 44.1600001,38.844 L44.1600001,38.844 Z M53.6400002,35.568 C54.1280026,35.568 54.5379985,35.6379993 54.8700002,35.778 C55.2020018,35.9180007 55.4719991,36.1179987 55.6800002,36.378 C55.8880012,36.6380013 56.0379997,36.9479982 56.1300002,37.308 C56.2220006,37.6680018 56.2680002,38.0639978 56.2680002,38.496 L56.2680002,41.832 C56.2680002,41.9040004 56.2540003,41.9499999 56.2260002,41.97 C56.198,41.9900001 56.1520005,42 56.0880002,42 L55.4280002,42 C55.3639998,42 55.3160003,41.9900001 55.2840002,41.97 C55.252,41.9499999 55.2360002,41.9040004 55.2360002,41.832 L55.2360002,38.664 C55.2360002,37.9199963 55.1060015,37.3740017 54.8460002,37.026 C54.5859989,36.6779983 54.1360034,36.504 53.4960002,36.504 C53.3759996,36.504 53.2460009,36.5139999 53.1060002,36.534 C52.9659995,36.5540001 52.8240009,36.5819998 52.6800002,36.618 C52.5359994,36.6540002 52.3980008,36.6959998 52.2660002,36.744 C52.1339995,36.7920002 52.0160007,36.8439997 51.9120002,36.9 C52.0240007,37.1320012 52.098,37.3859986 52.1340002,37.662 C52.1700003,37.9380014 52.1880002,38.2559982 52.1880002,38.616 L52.1880002,41.832 C52.1880002,41.9040004 52.1720003,41.9499999 52.1400002,41.97 C52.108,41.9900001 52.0560005,42 51.9840002,42 L51.3360002,42 C51.2719998,42 51.2240003,41.9900001 51.1920002,41.97 C51.16,41.9499999 51.1440002,41.9040004 51.1440002,41.832 L51.1440002,38.604 C51.1440002,38.2759984 51.1180004,37.9820013 51.0660002,37.722 C51.0139999,37.4619987 50.9200008,37.2420009 50.7840002,37.062 C50.6479995,36.8819991 50.4620013,36.7440005 50.2260002,36.648 C49.989999,36.5519995 49.684002,36.504 49.3080002,36.504 C49.2039996,36.504 49.0440012,36.5099999 48.8280002,36.522 C48.6119991,36.5340001 48.4080011,36.5599998 48.2160002,36.6 L48.2160002,41.832 C48.2160002,41.9040004 48.2020003,41.9499999 48.1740002,41.97 C48.146,41.9900001 48.0960005,42 48.0240002,42 L47.3760002,42 C47.3119998,42 47.2620003,41.9900001 47.2260002,41.97 C47.19,41.9499999 47.1720002,41.9040004 47.1720002,41.832 L47.1720002,36.612 C47.1720002,36.3719988 47.2239996,36.1840007 47.3280002,36.048 C47.4320007,35.9119993 47.5759992,35.8080004 47.7600002,35.736 C47.9440011,35.6639996 48.1639989,35.6180001 48.4200002,35.598 C48.6760014,35.5779999 48.9559986,35.568 49.2600002,35.568 C49.7480026,35.568 50.1539985,35.6199995 50.4780002,35.724 C50.8020018,35.8280005 51.0919989,35.9959988 51.3480002,36.228 L51.3600002,36.228 C51.6560016,36.019999 51.9979982,35.8580006 52.3860002,35.742 C52.7740021,35.6259994 53.1919979,35.568 53.6400002,35.568 L53.6400002,35.568 Z M60.9720002,35.568 C61.4280025,35.568 61.8219985,35.6319994 62.1540002,35.76 C62.4860019,35.8880006 62.7579991,36.0699988 62.9700002,36.306 C63.1820013,36.5420012 63.3399997,36.8219984 63.4440002,37.146 C63.5480007,37.4700016 63.6000002,37.827998 63.6000002,38.22 C63.6000002,38.412001 63.5760004,38.5679994 63.5280002,38.688 C63.48,38.8080006 63.4140006,38.9019997 63.3300002,38.97 C63.2459998,39.0380003 63.1500007,39.0859999 63.0420002,39.114 C62.9339997,39.1420001 62.8200008,39.156 62.7000002,39.156 L59.2560002,39.156 C59.2560002,39.5320019 59.3079997,39.8519987 59.4120002,40.116 C59.5160007,40.3800013 59.6539993,40.5939992 59.8260002,40.758 C59.9980011,40.9220008 60.1979991,41.0399996 60.4260002,41.112 C60.6540013,41.1840004 60.8999989,41.22 61.1640002,41.22 C61.4280015,41.22 61.6879989,41.1860003 61.9440002,41.118 C62.2000015,41.0499997 62.4119994,40.9720004 62.5800002,40.884 C62.6760007,40.8279997 62.7519999,40.8479995 62.8080002,40.944 L63.0600002,41.448 C63.1160005,41.5600006 63.0920007,41.6399998 62.9880002,41.688 C62.6999988,41.8640009 62.3900019,41.9819997 62.0580002,42.042 C61.7259985,42.1020003 61.4000018,42.132 61.0800002,42.132 C60.631998,42.132 60.230002,42.0680006 59.8740002,41.94 C59.5179984,41.8119994 59.2160014,41.6160013 58.9680002,41.352 C58.719999,41.0879987 58.5300009,40.752002 58.3980002,40.344 C58.2659995,39.935998 58.2000002,39.4480028 58.2000002,38.88 C58.2000002,38.3519974 58.2699995,37.8820021 58.4100002,37.47 C58.5500009,37.0579979 58.743999,36.7120014 58.9920002,36.432 C59.2400014,36.1519986 59.5319985,35.9380007 59.8680002,35.79 C60.2040019,35.6419993 60.5719982,35.568 60.9720002,35.568 L60.9720002,35.568 Z M62.6160002,38.316 C62.6160002,38.0679988 62.5920004,37.8300011 62.5440002,37.602 C62.496,37.3739989 62.4100008,37.1740009 62.2860002,37.002 C62.1619996,36.8299991 61.9940013,36.6940005 61.7820002,36.594 C61.5699991,36.4939995 61.3040018,36.444 60.9840002,36.444 C60.7199989,36.444 60.4860012,36.4959995 60.2820002,36.6 C60.0779992,36.7040005 59.9060009,36.8419991 59.7660002,37.014 C59.6259995,37.1860009 59.5160006,37.3839989 59.4360002,37.608 C59.3559998,37.8320011 59.3080003,38.0679988 59.2920002,38.316 L62.6160002,38.316 Z M70.6800002,41.82 C70.6800002,41.9000004 70.6660004,41.9499999 70.6380002,41.97 C70.6100001,41.9900001 70.5600006,42 70.4880002,42 L69.8280002,42 C69.7639999,42 69.7160004,41.9900001 69.6840002,41.97 C69.6520001,41.9499999 69.6360002,41.9000004 69.6360002,41.82 L69.6360002,38.64 C69.6360002,38.2799982 69.6060005,37.9660013 69.5460002,37.698 C69.4859999,37.4299987 69.382001,37.2060009 69.2340002,37.026 C69.0859995,36.8459991 68.8860015,36.7120004 68.6340002,36.624 C68.381999,36.5359996 68.0640021,36.492 67.6800002,36.492 C67.5919998,36.492 67.4440013,36.4979999 67.2360002,36.51 C67.0279992,36.5220001 66.7960015,36.5479998 66.5400002,36.588 L66.5400002,41.82 C66.5400002,41.9000004 66.5240004,41.9499999 66.4920002,41.97 C66.4600001,41.9900001 66.4120005,42 66.3480002,42 L65.6880002,42 C65.6239999,42 65.5760004,41.9900001 65.5440002,41.97 C65.5120001,41.9499999 65.4960002,41.9000004 65.4960002,41.82 L65.4960002,36.588 C65.4960002,36.3159986 65.5499997,36.1060007 65.6580002,35.958 C65.7660008,35.8099993 65.9639988,35.7160002 66.2520002,35.676 C66.3400007,35.6599999 66.4499996,35.6460001 66.5820002,35.634 C66.7140009,35.6219999 66.8519995,35.6100001 66.9960002,35.598 C67.1400009,35.5859999 67.2799995,35.578 67.4160002,35.574 C67.5520009,35.57 67.6679997,35.568 67.7640002,35.568 C68.2760028,35.568 68.7159984,35.6239994 69.0840002,35.736 C69.4520021,35.8480006 69.753999,36.0259988 69.9900002,36.27 C70.2260014,36.5140012 70.3999997,36.8279981 70.5120002,37.212 C70.6240008,37.5960019 70.6800002,38.0599973 70.6800002,38.604 L70.6800002,41.82 Z M72.4320002,36.528 C72.3599999,36.528 72.3140003,36.5120002 72.2940002,36.48 C72.2740001,36.4479998 72.2640002,36.4080002 72.2640002,36.36 L72.2640002,36.012 C72.2640002,35.9079995 72.3199997,35.8400002 72.4320002,35.808 L73.3680002,35.628 L73.5600002,34.476 C73.5760003,34.3959996 73.6000001,34.3440001 73.6320002,34.32 C73.6640004,34.2959999 73.7119999,34.2680002 73.7760002,34.236 L74.1720002,34.092 C74.2280005,34.0759999 74.2720001,34.0779999 74.3040002,34.098 C74.3360004,34.1180001 74.3520002,34.1679996 74.3520002,34.248 L74.3520002,35.7 L75.6840002,35.7 C75.7560006,35.7 75.8020001,35.7159998 75.8220002,35.748 C75.8420003,35.7800002 75.8520002,35.8239997 75.8520002,35.88 L75.8520002,36.36 C75.8520002,36.4240003 75.8420003,36.4679999 75.8220002,36.492 C75.8020001,36.5160001 75.7560006,36.528 75.6840002,36.528 L74.3520002,36.528 L74.3520002,40.416 C74.3520002,40.6960014 74.4139996,40.8979994 74.5380002,41.022 C74.6620009,41.1460006 74.8679988,41.208 75.1560002,41.208 C75.2600008,41.208 75.4059993,41.1980001 75.5940002,41.178 C75.7820012,41.1579999 75.9439996,41.1400001 76.0800002,41.124 C76.1520006,41.1079999 76.1980001,41.1099999 76.2180002,41.13 C76.2380003,41.1500001 76.2520002,41.1799998 76.2600002,41.22 L76.3680002,41.76 C76.3760003,41.8080002 76.3780003,41.8479998 76.3740002,41.88 C76.3700002,41.9120002 76.3360006,41.9399999 76.2720002,41.964 C76.0399991,42.0360004 75.7960015,42.0819999 75.5400002,42.102 C75.283999,42.1220001 75.1000008,42.132 74.9880002,42.132 C74.3639971,42.132 73.9280015,41.9980013 73.6800002,41.73 C73.431999,41.4619987 73.3080002,41.0480028 73.3080002,40.488 L73.3080002,36.528 L72.4320002,36.528 Z M85.8120003,36.672 C85.5799991,36.5919996 85.3360016,36.5380001 85.0800003,36.51 C84.823999,36.4819999 84.6040012,36.468 84.4200003,36.468 C84.1399989,36.468 83.8840014,36.5139995 83.6520003,36.606 C83.4199991,36.6980005 83.2220011,36.839999 83.0580003,37.032 C82.8939995,37.224001 82.7660007,37.4699985 82.6740003,37.77 C82.5819998,38.0700015 82.5360003,38.4359978 82.5360003,38.868 C82.5360003,39.660004 82.6919987,40.251998 83.0040003,40.644 C83.3160018,41.036002 83.7479975,41.232 84.3000003,41.232 C84.452001,41.232 84.6659989,41.2160002 84.9420003,41.184 C85.2180017,41.1519998 85.5079988,41.0880005 85.8120003,40.992 L85.8120003,36.672 Z M84.3840003,35.58 C84.7680022,35.58 85.1639982,35.6079997 85.5720003,35.664 C85.9800023,35.7200003 86.3639985,35.8239992 86.7240003,35.976 C86.8200008,36.0160002 86.8680003,36.0919994 86.8680003,36.204 L86.8680003,41.508 C86.8680003,42.0440027 86.8040009,42.4959982 86.6760003,42.864 C86.5479996,43.2320018 86.3560016,43.5399988 86.1000003,43.788 C85.843999,44.0360012 85.5260022,44.2279993 85.1460003,44.364 C84.7659984,44.5000007 84.3280028,44.6039996 83.8320003,44.676 C83.768,44.684 83.7220004,44.6800001 83.6940003,44.664 C83.6660001,44.6479999 83.6440004,44.6080003 83.6280003,44.544 L83.5440003,43.884 C83.5440003,43.7959996 83.5879998,43.7440001 83.6760003,43.728 C84.020002,43.6799998 84.321999,43.6160004 84.5820003,43.536 C84.8420016,43.4559996 85.0619994,43.3480007 85.2420003,43.212 C85.4220012,43.0759993 85.5579998,42.908001 85.6500003,42.708 C85.7420007,42.507999 85.7880003,42.2560015 85.7880003,41.952 L85.7880003,41.88 C85.531999,41.9600004 85.2540018,42.0239998 84.9540003,42.072 C84.6539988,42.1200002 84.3960014,42.144 84.1800003,42.144 C83.7079979,42.144 83.302002,42.0640008 82.9620003,41.904 C82.6219986,41.7439992 82.3400014,41.5240014 82.1160003,41.244 C81.8919992,40.9639986 81.7280008,40.628002 81.6240003,40.236 C81.5199998,39.843998 81.4680003,39.4120024 81.4680003,38.94 C81.4680003,38.4519976 81.5259997,38.0020021 81.6420003,37.59 C81.7580009,37.1779979 81.9339991,36.8240015 82.1700003,36.528 C82.4060015,36.2319985 82.7079984,36.0000008 83.0760003,35.832 C83.4440021,35.6639992 83.8799978,35.58 84.3840003,35.58 L84.3840003,35.58 Z M92.7840003,37.164 C92.7440001,37.2200003 92.7100004,37.2420001 92.6820003,37.23 C92.6540002,37.2179999 92.6200005,37.2000001 92.5800003,37.176 C92.3559992,36.9599989 92.1000017,36.7940006 91.8120003,36.678 C91.5239989,36.5619994 91.212002,36.504 90.8760003,36.504 C90.6519992,36.504 90.4160015,36.5279998 90.1680003,36.576 L90.1680003,41.82 C90.1680003,41.9000004 90.1520005,41.9499999 90.1200003,41.97 C90.0880001,41.9900001 90.0400006,42 89.9760003,42 L89.3160003,42 C89.252,42 89.2060004,41.9900001 89.1780003,41.97 C89.1500002,41.9499999 89.1360003,41.9000004 89.1360003,41.82 L89.1360003,36.54 C89.1360003,36.2519986 89.1839998,36.0400007 89.2800003,35.904 C89.3760008,35.7679993 89.5759988,35.6760002 89.8800003,35.628 C90.0400011,35.6119999 90.1959995,35.5980001 90.3480003,35.586 C90.5000011,35.5739999 90.6519995,35.568 90.8040003,35.568 C91.2760027,35.568 91.7119983,35.6319994 92.1120003,35.76 C92.5120023,35.8880006 92.8799986,36.0999985 93.2160003,36.396 C93.2800006,36.4600003 93.2840006,36.5239997 93.2280003,36.588 L92.7840003,37.164 Z M99.7320003,38.82 C99.7320003,39.8920054 99.4900028,40.7119972 99.0060003,41.28 C98.5219979,41.8480028 97.8200049,42.132 96.9000003,42.132 C95.9959958,42.132 95.3080027,41.8560028 94.8360003,41.304 C94.363998,40.7519972 94.1280003,39.9360054 94.1280003,38.856 C94.1280003,38.3279974 94.1979996,37.860002 94.3380003,37.452 C94.478001,37.043998 94.6739991,36.7000014 94.9260003,36.42 C95.1780016,36.1399986 95.4759986,35.9280007 95.8200003,35.784 C96.1640021,35.6399993 96.5359983,35.568 96.9360003,35.568 C97.8480049,35.568 98.541998,35.8559971 99.0180003,36.432 C99.4940027,37.0080029 99.7320003,37.8039949 99.7320003,38.82 L99.7320003,38.82 Z M98.6760003,38.856 C98.6760003,38.5439984 98.6520006,38.2420015 98.6040003,37.95 C98.5560001,37.6579985 98.468001,37.4020011 98.3400003,37.182 C98.2119997,36.9619989 98.0360015,36.7840007 97.8120003,36.648 C97.5879992,36.5119993 97.3000021,36.444 96.9480003,36.444 C96.6439988,36.444 96.3800015,36.5079994 96.1560003,36.636 C95.9319992,36.7640006 95.7480011,36.9359989 95.6040003,37.152 C95.4599996,37.3680011 95.3520007,37.6199986 95.2800003,37.908 C95.208,38.1960014 95.1720003,38.4999984 95.1720003,38.82 C95.1720003,39.1800018 95.2000001,39.5099985 95.2560003,39.81 C95.3120006,40.1100015 95.4079997,40.3659989 95.5440003,40.578 C95.680001,40.7900011 95.8579992,40.9559994 96.0780003,41.076 C96.2980014,41.1960006 96.5759987,41.256 96.9120003,41.256 C97.248002,41.256 97.5299992,41.1880007 97.7580003,41.052 C97.9860015,40.9159993 98.1679997,40.7360011 98.3040003,40.512 C98.440001,40.2879989 98.5360001,40.0320014 98.5920003,39.744 C98.6480006,39.4559986 98.6760003,39.1600015 98.6760003,38.856 L98.6760003,38.856 Z M101.652,35.868 C101.652,35.7879996 101.668,35.7380001 101.7,35.718 C101.732001,35.6979999 101.78,35.688 101.844,35.688 L102.504,35.688 C102.568001,35.688 102.616,35.6979999 102.648,35.718 C102.680001,35.7380001 102.696,35.7879996 102.696,35.868 L102.696,39.072 C102.696,39.4320018 102.72,39.7459987 102.768,40.014 C102.816001,40.2820013 102.906,40.5039991 103.038,40.68 C103.170001,40.8560009 103.357999,40.9859996 103.602,41.07 C103.846002,41.1540004 104.163998,41.196 104.556,41.196 C104.644001,41.196 104.789999,41.1900001 104.994,41.178 C105.198001,41.1659999 105.431999,41.1400002 105.696,41.1 L105.696,35.868 C105.696,35.7879996 105.71,35.7380001 105.738,35.718 C105.766,35.6979999 105.816,35.688 105.888,35.688 L106.548,35.688 C106.612001,35.688 106.66,35.6979999 106.692,35.718 C106.724001,35.7380001 106.74,35.7879996 106.74,35.868 L106.74,41.112 C106.74,41.6240026 106.488003,41.9279995 105.984,42.024 C105.872,42.0400001 105.748001,42.0539999 105.612,42.066 C105.476,42.0780001 105.340001,42.088 105.204,42.096 C105.068,42.104 104.936001,42.11 104.808,42.114 C104.68,42.118 104.568001,42.12 104.472,42.12 C103.951998,42.12 103.514002,42.0660005 103.158,41.958 C102.801999,41.8499995 102.512001,41.6780012 102.288,41.442 C102.063999,41.2059988 101.902001,40.8980019 101.802,40.518 C101.702,40.1379981 101.652,39.6760027 101.652,39.132 L101.652,35.868 Z M114.288,38.844 C114.288,39.3000023 114.230001,39.725998 114.114,40.122 C113.998,40.518002 113.826002,40.8659985 113.598,41.166 C113.369999,41.4660015 113.080002,41.7019991 112.728,41.874 C112.375999,42.0460009 111.968003,42.132 111.504,42.132 C111.279999,42.132 111.038002,42.1200001 110.778,42.096 C110.517999,42.0719999 110.240002,42.0160004 109.944,41.928 L109.944,44.256 C109.944,44.3280004 109.930001,44.3739999 109.902,44.394 C109.874,44.4140001 109.828001,44.424 109.764,44.424 L109.092,44.424 C109.028,44.424 108.980001,44.4140001 108.948,44.394 C108.916,44.3739999 108.9,44.3280004 108.9,44.256 L108.9,36.216 C108.9,36.1119995 108.948,36.0440002 109.044,36.012 C109.444002,35.8359991 109.855998,35.7180003 110.28,35.658 C110.704003,35.5979997 111.107998,35.568 111.492,35.568 C111.972003,35.568 112.387999,35.6499992 112.74,35.814 C113.092002,35.9780008 113.381999,36.2059985 113.61,36.498 C113.838002,36.7900015 114.008,37.135998 114.12,37.536 C114.232001,37.936002 114.288,38.3719976 114.288,38.844 L114.288,38.844 Z M113.196,38.844 C113.196,38.4039978 113.152001,38.0320015 113.064,37.728 C112.976,37.4239985 112.850001,37.1800009 112.686,36.996 C112.522,36.8119991 112.326002,36.6780004 112.098,36.594 C111.869999,36.5099996 111.612002,36.468 111.324,36.468 C111.115999,36.468 110.880002,36.4879998 110.616,36.528 C110.351999,36.5680002 110.128001,36.6239996 109.944,36.696 L109.944,41.016 C110.248002,41.1040004 110.509999,41.1619999 110.73,41.19 C110.950001,41.2180001 111.151999,41.232 111.336,41.232 C111.608002,41.232 111.857999,41.1900004 112.086,41.106 C112.314002,41.0219996 112.51,40.8860009 112.674,40.698 C112.838001,40.5099991 112.966,40.2640015 113.058,39.96 C113.150001,39.6559985 113.196,39.2840022 113.196,38.844 L113.196,38.844 Z" id="development-group" fill="#AAAAAA" sketch:type="MSShapeGroup"></path>
        </g>
    </g>
</svg>