<?xml version="1.0" encoding="UTF-8" standalone="no"?>
<svg width="14px" height="36px" viewBox="0 0 14 36" version="1.1" xmlns="http://www.w3.org/2000/svg" xmlns:xlink="http://www.w3.org/1999/xlink" xmlns:sketch="http://www.bohemiancoding.com/sketch/ns">
    <!-- Generator: Sketch 3.3 (11970) - http://www.bohemiancoding.com/sketch -->
    <title>men</title>
    <desc>Created with Sketch.</desc>
    <defs></defs>
    <g id="Page-1" stroke="none" stroke-width="1" fill="none" fill-rule="evenodd" sketch:type="MSPage">
        <g id="men" sketch:type="MSLayerGroup" transform="translate(-3.000000, -4.000000)">
            <rect id="bounds" sketch:type="MSShapeGroup" x="0" y="0" width="20" height="44"></rect>
            <path d="M14.1909957,23.2515 L14.1909957,14.8885 L13.5039957,14.8885 L13.4959957,37.5815 C13.4959957,38.4465 12.7939957,39.1495 11.9279957,39.1495 C11.0619957,39.1495 10.3589957,38.4465 10.3589957,37.5815 L10.3639957,24.4195 L9.66499574,24.4195 L9.66399574,37.5815 C9.66399574,38.4465 8.96099574,39.1495 8.09399574,39.1495 C7.22799574,39.1495 6.52499574,38.4465 6.52499574,37.5815 L6.52799574,14.8895 L5.82499574,14.8895 L5.82499574,23.2515 C5.82499574,24.9205 3.61899574,24.9205 3.61899574,23.2515 L3.61899574,14.6595 C3.61899574,12.6435 4.86099574,11.0285 6.84199574,11.0285 L13.1149957,11.0305 C15.2889957,11.0305 16.3809957,12.8525 16.3809957,14.7105 L16.3809957,23.2515 C16.3859957,24.9345 14.1909957,24.9345 14.1909957,23.2515 Z M9.83399574,10.4465 C8.28799574,10.4465 7.03499574,9.1945 7.03499574,7.6495 C7.03499574,6.1025 8.28799574,4.8505 9.83399574,4.8505 C11.3789957,4.8505 12.6329957,6.1025 12.6329957,7.6495 C12.6329957,9.1945 11.3789957,10.4465 9.83399574,10.4465 Z" id="Shape" fill="#C1C1C1" sketch:type="MSShapeGroup"></path>
        </g>
    </g>
</svg>