<?xml version="1.0" encoding="UTF-8" standalone="no"?>
<svg width="208px" height="11px" viewBox="0 0 208 11" version="1.1" xmlns="http://www.w3.org/2000/svg" xmlns:xlink="http://www.w3.org/1999/xlink" xmlns:sketch="http://www.bohemiancoding.com/sketch/ns">
    <!-- Generator: Sketch 3.3 (11970) - http://www.bohemiancoding.com/sketch -->
    <title>next</title>
    <desc>Created with Sketch.</desc>
    <defs></defs>
    <g id="Page-1" stroke="none" stroke-width="1" fill="none" fill-rule="evenodd" sketch:type="MSPage">
        <g id="next" sketch:type="MSLayerGroup" fill="#FFFFFF">
            <path d="M68.1544862,4.99971584 L0.491523973,4.99971584 L0,4.99971584 L0,4.00028416 L0.491523973,4.00028416 L68.1544862,4.00028416 L68.1544862,4.00028416 L66.0081764,1.64446142 L65.6606164,1.26297428 L66.3557363,0.5 L66.7032962,0.88148714 L69.6524401,4.11851286 L69.82622,4.30925643 L70,4.5 L69.6524401,4.88148714 L66.7032962,8.11851286 L66.3557363,8.5 L65.6606164,7.73702572 L66.0081764,7.35553858 L68.1544862,4.99971584 L68.1544862,4.99971584 Z" id="arrow-copy-2" sketch:type="MSShapeGroup" transform="translate(35.000000, 4.500000) rotate(-180.000000) translate(-35.000000, -4.500000) "></path>
            <path d="M91.72,1.17 L85.69,1.17 L85.69,8.29 L87.25,8.29 L87.25,2.5 L90.16,2.5 L90.16,8.29 L91.72,8.29 L91.72,1.17 Z M94.11,1.17 L94.11,8.29 L95.66,8.29 L95.66,5.73 L97.26,5.73 C98.69,5.73 99.79,5.01 99.79,3.46 C99.79,1.89 98.72,1.17 97.18,1.17 L94.11,1.17 Z M95.66,2.45 L97.06,2.45 C97.75,2.45 98.27,2.72 98.27,3.48 C98.27,4.27 97.75,4.5 97.05,4.5 L95.66,4.5 L95.66,2.45 Z M107.11,1.17 L101.77,1.17 L101.77,8.29 L107.18,8.29 L107.18,6.98 L103.32,6.98 L103.32,5.23 L106.8,5.23 L106.8,4 L103.32,4 L103.32,2.45 L107.11,2.45 L107.11,1.17 Z M116.18,10.12 L116.18,6.96 L115.39,6.96 L115.39,1.17 L110.32,1.17 L110.32,2.25 C110.32,4.35 110.02,5.84 109.18,6.96 L108.64,6.96 L108.64,10.12 L110.15,10.12 L110.15,8.29 L114.67,8.29 L114.67,10.12 L116.18,10.12 Z M113.83,6.96 L110.92,6.96 C111.55,5.81 111.87,4.51 111.87,2.56 L111.87,2.44 L113.83,2.44 L113.83,6.96 Z M123.41,6 C123.41,4.45 122.31,3.73 120.88,3.73 L119.58,3.73 L119.58,1.17 L118.03,1.17 L118.03,8.29 L120.8,8.29 C122.34,8.29 123.41,7.57 123.41,6 L123.41,6 Z M121.89,5.98 C121.89,6.74 121.43,7.01 120.68,7.01 L119.58,7.01 L119.58,4.96 L120.67,4.96 C121.37,4.96 121.89,5.23 121.89,5.98 L121.89,5.98 Z M124.17,1.17 L124.17,8.29 L125.73,8.29 L125.73,1.17 L124.17,1.17 Z M135.03,10.12 L135.03,6.96 L134.24,6.96 L134.24,1.17 L129.17,1.17 L129.17,2.25 C129.17,4.35 128.87,5.84 128.03,6.96 L127.49,6.96 L127.49,10.12 L129,10.12 L129,8.29 L133.52,8.29 L133.52,10.12 L135.03,10.12 Z M132.68,6.96 L129.77,6.96 C130.4,5.81 130.72,4.51 130.72,2.56 L130.72,2.44 L132.68,2.44 L132.68,6.96 Z M137.21,8.26 C137.36,8.32 137.7,8.42 138.08,8.42 C139.23,8.42 139.79,7.86 140.45,6.41 L142.85,1.17 L141.18,1.17 L139.6,4.92 L137.99,1.17 L136.26,1.17 L138.35,5.57 C138.49,5.86 138.68,6.18 138.68,6.49 C138.68,6.81 138.44,7.1 137.96,7.1 C137.67,7.1 137.4,7.02 137.21,6.94 L137.21,8.26 Z M154.74,10.12 L154.74,6.96 L153.95,6.96 L153.95,1.17 L152.39,1.17 L152.39,6.96 L150.02,6.96 L150.02,1.17 L148.46,1.17 L148.46,6.96 L146.09,6.96 L146.09,1.17 L144.53,1.17 L144.53,8.29 L153.23,8.29 L153.23,10.12 L154.74,10.12 Z M161.81,1.17 L156.47,1.17 L156.47,8.29 L161.88,8.29 L161.88,6.98 L158.02,6.98 L158.02,5.23 L161.5,5.23 L161.5,4 L158.02,4 L158.02,2.45 L161.81,2.45 L161.81,1.17 Z M169.29,1.17 L163.95,1.17 L163.95,8.29 L169.36,8.29 L169.36,6.98 L165.5,6.98 L165.5,5.23 L168.98,5.23 L168.98,4 L165.5,4 L165.5,2.45 L169.29,2.45 L169.29,1.17 Z M182.62,4.65 C182.62,2.93 181.39,1.93 179.53,1.87 L179.53,1.17 L177.99,1.17 L177.99,1.87 C176.13,1.93 174.9,2.93 174.9,4.65 C174.9,6.44 176.16,7.44 177.99,7.51 L177.99,8.29 L179.53,8.29 L179.53,7.51 C181.36,7.44 182.62,6.44 182.62,4.65 L182.62,4.65 Z M181.12,4.65 C181.12,5.6 180.53,6.3 179.53,6.34 L179.53,3 C180.56,3.04 181.12,3.64 181.12,4.65 L181.12,4.65 Z M177.99,6.34 C176.99,6.3 176.41,5.6 176.41,4.65 C176.41,3.64 176.96,3.04 177.99,3 L177.99,6.34 Z M187.91,1 C185.78,1 184.38,2.48 184.38,4.74 C184.38,6.97 185.79,8.46 187.9,8.46 C189.99,8.46 191.4,6.96 191.4,4.74 C191.4,2.51 189.99,1 187.91,1 L187.91,1 Z M187.89,2.28 C189.08,2.28 189.82,3.21 189.82,4.71 C189.82,6.23 189.09,7.17 187.91,7.17 C186.7,7.16 185.96,6.24 185.96,4.71 C185.96,3.23 186.71,2.28 187.89,2.28 L187.89,2.28 Z M198.58,1.17 L192.73,1.17 L192.73,2.5 L194.87,2.5 L194.87,8.29 L196.44,8.29 L196.44,2.5 L198.58,2.5 L198.58,1.17 Z M203.62,1 C201.49,1 200.09,2.48 200.09,4.74 C200.09,6.97 201.5,8.46 203.61,8.46 C205.7,8.46 207.11,6.96 207.11,4.74 C207.11,2.51 205.7,1 203.62,1 L203.62,1 Z M203.6,2.28 C204.79,2.28 205.53,3.21 205.53,4.71 C205.53,6.23 204.8,7.17 203.62,7.17 C202.41,7.16 201.67,6.24 201.67,4.71 C201.67,3.23 202.42,2.28 203.6,2.28 L203.6,2.28 Z" id="ПРЕДЫДУЩЕЕ-ФОТО" sketch:type="MSShapeGroup"></path>
        </g>
    </g>
</svg>