<?xml version="1.0" encoding="UTF-8" standalone="no"?>
<svg width="200px" height="11px" viewBox="0 0 200 11" version="1.1" xmlns="http://www.w3.org/2000/svg" xmlns:xlink="http://www.w3.org/1999/xlink" xmlns:sketch="http://www.bohemiancoding.com/sketch/ns">
    <!-- Generator: Sketch 3.3 (11970) - http://www.bohemiancoding.com/sketch -->
    <title>prev</title>
    <desc>Created with Sketch.</desc>
    <defs></defs>
    <g id="Page-1" stroke="none" stroke-width="1" fill="none" fill-rule="evenodd" sketch:type="MSPage">
        <g id="prev" sketch:type="MSLayerGroup" fill="#FFFFFF">
            <path d="M198.154486,4.99971584 L130.491524,4.99971584 L130,4.99971584 L130,4.00028416 L130.491524,4.00028416 L198.154486,4.00028416 L198.154486,4.00028416 L196.008176,1.64446142 L195.660616,1.26297428 L196.355736,0.5 L196.703296,0.88148714 L199.65244,4.11851286 L199.82622,4.30925643 L200,4.5 L199.65244,4.88148714 L196.703296,8.11851286 L196.355736,8.5 L195.660616,7.73702572 L196.008176,7.35553858 L198.154486,4.99971584 L198.154486,4.99971584 Z" id="arrow-copy" sketch:type="MSShapeGroup"></path>
            <path d="M6.63,5.54 L5.08,5.54 C4.95,6.58 4.39,7.14 3.45,7.14 C2.3,7.14 1.57,6.2 1.57,4.73 C1.57,3.54 2.1,2.31 3.47,2.31 C4.31,2.31 4.89,2.77 5.05,3.55 L6.58,3.55 C6.46,2.08 5.21,1 3.5,1 C1.32,1 0,2.65 0,4.72 C0,6.97 1.37,8.46 3.44,8.46 C5.39,8.46 6.47,7.28 6.63,5.54 L6.63,5.54 Z M14.29,1.17 L9.33,1.17 L9.21,5.5 C9.17,6.96 8.83,7.17 8.41,7.17 C8.21,7.17 7.98,7.11 7.86,7.05 L7.86,8.31 C8.07,8.38 8.46,8.43 8.74,8.43 C9.96,8.43 10.65,7.54 10.72,5.52 L10.82,2.5 L12.73,2.5 L12.73,8.29 L14.29,8.29 L14.29,1.17 Z M21.98,1.17 L16.64,1.17 L16.64,8.29 L22.05,8.29 L22.05,6.98 L18.19,6.98 L18.19,5.23 L21.67,5.23 L21.67,4 L18.19,4 L18.19,2.45 L21.98,2.45 L21.98,1.17 Z M31.05,10.12 L31.05,6.96 L30.26,6.96 L30.26,1.17 L25.19,1.17 L25.19,2.25 C25.19,4.35 24.89,5.84 24.05,6.96 L23.51,6.96 L23.51,10.12 L25.02,10.12 L25.02,8.29 L29.54,8.29 L29.54,10.12 L31.05,10.12 Z M28.7,6.96 L25.79,6.96 C26.42,5.81 26.74,4.51 26.74,2.56 L26.74,2.44 L28.7,2.44 L28.7,6.96 Z M33.23,8.26 C33.38,8.32 33.72,8.42 34.1,8.42 C35.25,8.42 35.81,7.86 36.47,6.41 L38.87,1.17 L37.2,1.17 L35.62,4.92 L34.01,1.17 L32.28,1.17 L34.37,5.57 C34.51,5.86 34.7,6.18 34.7,6.49 C34.7,6.81 34.46,7.1 33.98,7.1 C33.69,7.1 33.42,7.02 33.23,6.94 L33.23,8.26 Z M46.47,1 C44.76,1 43.57,2.12 43.28,3.9 L42.13,3.9 L42.13,1.17 L40.57,1.17 L40.57,8.29 L42.13,8.29 L42.13,5.17 L43.24,5.17 C43.39,7.16 44.65,8.46 46.46,8.46 C48.38,8.46 49.68,6.96 49.68,4.74 C49.68,2.51 48.38,1 46.47,1 L46.47,1 Z M46.45,2.28 C47.47,2.28 48.1,3.21 48.1,4.71 C48.1,6.23 47.48,7.17 46.47,7.17 C45.43,7.16 44.8,6.24 44.8,4.71 C44.8,3.23 45.44,2.28 46.45,2.28 L46.45,2.28 Z M61.94,10.12 L61.94,6.96 L61.15,6.96 L61.15,1.17 L59.59,1.17 L59.59,6.96 L57.22,6.96 L57.22,1.17 L55.66,1.17 L55.66,6.96 L53.29,6.96 L53.29,1.17 L51.73,1.17 L51.73,8.29 L60.43,8.29 L60.43,10.12 L61.94,10.12 Z M69.01,1.17 L63.67,1.17 L63.67,8.29 L69.08,8.29 L69.08,6.98 L65.22,6.98 L65.22,5.23 L68.7,5.23 L68.7,4 L65.22,4 L65.22,2.45 L69.01,2.45 L69.01,1.17 Z M76.49,1.17 L71.15,1.17 L71.15,8.29 L76.56,8.29 L76.56,6.98 L72.7,6.98 L72.7,5.23 L76.18,5.23 L76.18,4 L72.7,4 L72.7,2.45 L76.49,2.45 L76.49,1.17 Z M89.82,4.65 C89.82,2.93 88.59,1.93 86.73,1.87 L86.73,1.17 L85.19,1.17 L85.19,1.87 C83.33,1.93 82.1,2.93 82.1,4.65 C82.1,6.44 83.36,7.44 85.19,7.51 L85.19,8.29 L86.73,8.29 L86.73,7.51 C88.56,7.44 89.82,6.44 89.82,4.65 L89.82,4.65 Z M88.32,4.65 C88.32,5.6 87.73,6.3 86.73,6.34 L86.73,3 C87.76,3.04 88.32,3.64 88.32,4.65 L88.32,4.65 Z M85.19,6.34 C84.19,6.3 83.61,5.6 83.61,4.65 C83.61,3.64 84.16,3.04 85.19,3 L85.19,6.34 Z M95.11,1 C92.98,1 91.58,2.48 91.58,4.74 C91.58,6.97 92.99,8.46 95.1,8.46 C97.19,8.46 98.6,6.96 98.6,4.74 C98.6,2.51 97.19,1 95.11,1 L95.11,1 Z M95.09,2.28 C96.28,2.28 97.02,3.21 97.02,4.71 C97.02,6.23 96.29,7.17 95.11,7.17 C93.9,7.16 93.16,6.24 93.16,4.71 C93.16,3.23 93.91,2.28 95.09,2.28 L95.09,2.28 Z M105.78,1.17 L99.93,1.17 L99.93,2.5 L102.07,2.5 L102.07,8.29 L103.64,8.29 L103.64,2.5 L105.78,2.5 L105.78,1.17 Z M110.82,1 C108.69,1 107.29,2.48 107.29,4.74 C107.29,6.97 108.7,8.46 110.81,8.46 C112.9,8.46 114.31,6.96 114.31,4.74 C114.31,2.51 112.9,1 110.82,1 L110.82,1 Z M110.8,2.28 C111.99,2.28 112.73,3.21 112.73,4.71 C112.73,6.23 112,7.17 110.82,7.17 C109.61,7.16 108.87,6.24 108.87,4.71 C108.87,3.23 109.62,2.28 110.8,2.28 L110.8,2.28 Z" id="СЛЕДУЮЩЕЕ-ФОТО" sketch:type="MSShapeGroup"></path>
        </g>
    </g>
</svg>