<?xml version="1.0" encoding="UTF-8" standalone="no"?>
<svg width="2600px" height="272px" viewBox="0 0 2600 272" version="1.1" xmlns="http://www.w3.org/2000/svg" xmlns:xlink="http://www.w3.org/1999/xlink" xmlns:sketch="http://www.bohemiancoding.com/sketch/ns">
    <!-- Generator: Sketch 3.3 (11970) - http://www.bohemiancoding.com/sketch -->
    <title>skyline</title>
    <desc>Created with Sketch.</desc>
    <defs></defs>
    <g id="Page-1" stroke="none" stroke-width="1" fill="none" fill-rule="evenodd" sketch:type="MSPage">
        <path d="M2600,186.924999 L1985.249,186.925 L1974.568,186.925 L1974.568,0.507 L1911.361,0.507 L1911.361,188.697 L1905.728,188.697 L1905.728,169.88 L1866.872,169.88 L1866.872,20.794 L1859.394,13.321 L1799.933,13.321 L1790.507,13.321 L1790.507,168.132 L1763.36,168.132 L1763.36,175.933 L1756.693,175.933 L1756.693,125.687 L1752.194,125.687 L1752.194,83.748 L1746.669,83.748 L1746.669,37.656 L1743.511,37.656 L1743.511,29.147 L1695.234,29.147 L1695.234,38.365 L1690.076,38.365 L1690.076,82.513 L1686.887,85.7 L1686.887,123.8 L1682.077,123.8 L1682.077,81.621 L1676.272,81.621 L1676.272,31.983 L1673.554,31.983 L1673.554,20.794 L1620.432,20.794 L1620.432,31.989 L1617.594,31.989 L1617.594,80.202 L1614.464,83.33 L1614.464,123.459 L1611.206,123.459 L1611.206,207.134 L1582.266,207.134 L1582.266,154.657 L1578.221,154.657 L1578.221,151.064 L1569.808,151.064 L1569.714,136.045 L1555.332,136.045 L1555.332,140.84 L1542.88,140.84 L1542.88,153.241 L1529.969,153.241 L1529.969,90.13 L1519.135,75.76 L1494.107,75.76 L1483.954,90.16 L1483.954,117.076 C1483.954,119.204 1467.716,133.302 1467.716,133.302 L1467.716,162.46 L1432.672,162.46 L1432.795,203.465 L1405.083,203.465 L1399.464,209.078 L1386.234,209.078 L1386.234,137.559 L1376.547,137.559 L1376.547,129.841 L1364.943,129.841 L1364.943,136.222 L1350.04,136.222 L1350.04,209.078 L1322.511,209.078 L1322.511,201.879 L1299.956,201.879 L1299.956,129.88 L1292.516,129.88 L1292.516,136.222 L1251.894,136.222 L1251.894,200.751 L1213.069,200.751 L1213.069,244.716 L1192,244.716 L1192,158.473 L1182.385,158.473 L1182.385,151.823 L1172.617,151.823 L1172.617,156.64 L1145.039,156.64 L1145.039,163.834 L1099.519,163.834 L1099.519,230.842 L1095.154,230.842 L1095.154,210.679 L1085.046,210.679 L1085.046,203.742 L1064.035,203.742 L1064.035,209.314 L1056.244,209.314 L1056.244,212.629 L1053.389,212.629 L1039.9,199.151 L1027.845,211.195 L1026.248,211.195 L1026.248,220.252 L1020.391,226.104 L1016.13,226.104 L1016.13,258.367 L1013.824,258.367 L1013.824,253.632 L1004.066,253.632 L1004.066,225.393 L996.313,225.393 L996.313,220.787 L987.369,220.787 L987.369,189.051 L943.343,189.051 L943.343,183.733 L933.129,173.527 L933.129,161.396 L918.548,161.396 L918.548,165.296 L896.802,165.296 L896.802,173.812 L891.705,173.812 L891.705,178.054 L888.031,178.054 L888.031,258.367 L866.777,258.367 L866.777,241.171 L854.363,241.171 L854.363,212.903 L837.82,212.903 L837.82,197.556 L790.803,197.556 L790.803,232.839 L705.996,232.839 L705.996,226.595 L682.35,226.595 L682.35,230.889 L675.418,230.889 L675.418,270.55 L661.758,270.55 L661.758,241.407 L627.34,241.407 L627.34,252.162 L0,252.161999" id="skyline" stroke="#333333" sketch:type="MSShapeGroup"></path>
    </g>
</svg>