<?xml version="1.0" encoding="UTF-8" standalone="no"?>
<svg width="1371px" height="272px" viewBox="0 0 1371 272" version="1.1" xmlns="http://www.w3.org/2000/svg" xmlns:xlink="http://www.w3.org/1999/xlink" xmlns:sketch="http://www.bohemiancoding.com/sketch/ns">
    <!-- Generator: Sketch 3.3 (11970) - http://www.bohemiancoding.com/sketch -->
    <title>skyline</title>
    <desc>Created with Sketch.</desc>
    <defs></defs>
    <g id="Page-1" stroke="none" stroke-width="1" fill="none" fill-rule="evenodd" sketch:type="MSPage">
        <path d="M1370.096,187.418 L1359.415,187.418 L1359.415,1 L1296.208,1 L1296.208,189.19 L1290.575,189.19 L1290.575,170.373 L1251.719,170.373 L1251.719,21.287 L1244.241,13.814 L1184.78,13.814 L1175.354,13.814 L1175.354,168.625 L1148.207,168.625 L1148.207,176.426 L1141.54,176.426 L1141.54,126.18 L1137.041,126.18 L1137.041,84.241 L1131.516,84.241 L1131.516,38.149 C1128.358,38.149 1128.358,29.64 1128.358,29.64 L1080.081,29.64 L1080.081,38.858 L1074.923,38.858 L1074.923,83.006 L1071.734,86.193 L1071.734,124.293 L1066.924,124.293 L1066.924,82.114 L1061.119,82.114 L1061.119,32.476 C1058.401,32.476 1058.401,21.287 1058.401,21.287 L1005.279,21.287 L1005.279,32.482 C1002.441,32.482 1002.441,80.695 1002.441,80.695 L999.311,83.823 L999.311,123.952 C996.053,123.952 996.053,207.627 996.053,207.627 L967.113,207.627 L967.113,155.15 C963.068,155.15 963.068,151.557 963.068,151.557 L954.655,151.557 L954.561,136.538 L940.179,136.538 L940.179,141.333 L927.727,141.333 L927.727,153.734 L914.816,153.734 L914.816,90.623 L903.982,76.253 L878.954,76.253 L868.801,90.653 L868.801,117.569 C868.801,119.697 852.563,133.795 852.563,133.795 L852.563,162.953 L817.519,162.953 L817.642,203.958 L789.93,203.958 L784.311,209.571 L771.081,209.571 L771.081,138.052 L761.394,138.052 L761.394,130.334 L749.79,130.334 L749.79,136.715 L734.887,136.715 L734.887,209.571 L707.358,209.571 L707.358,202.372 L684.803,202.372 L684.803,130.373 L677.363,130.373 L677.363,136.715 L636.741,136.715 L636.741,201.244 L597.916,201.244 L597.916,245.209 L576.847,245.209 L576.847,158.966 L567.232,158.966 L567.232,152.316 L557.464,152.316 L557.464,157.133 L529.886,157.133 L529.886,164.327 L484.366,164.327 L484.366,231.335 L480.001,231.335 L480.001,211.172 L469.893,211.172 L469.893,204.235 L448.882,204.235 L448.882,209.807 L441.091,209.807 L441.091,213.122 C438.236,213.122 424.747,199.644 424.747,199.644 L412.692,211.688 C411.095,211.688 411.095,220.745 411.095,220.745 L405.238,226.597 L400.977,226.597 L400.977,258.86 C398.671,258.86 398.671,254.125 398.671,254.125 L388.913,254.125 L388.913,225.886 L381.16,225.886 L381.16,221.28 L372.216,221.28 L372.216,189.544 L328.19,189.544 L328.19,184.226 L317.976,174.02 L317.976,161.889 L303.395,161.889 L303.395,165.789 L281.649,165.789 L281.649,174.305 L276.552,174.305 L276.552,178.547 C272.878,178.547 272.878,258.86 272.878,258.86 L251.624,258.86 L251.624,241.664 L239.21,241.664 L239.21,213.396 L222.667,213.396 L222.667,198.049 L175.65,198.049 L175.65,233.332 L90.843,233.332 L90.843,227.088 L67.197,227.088 L67.197,231.382 L60.265,231.382 L60.265,271.043 L46.605,271.043 L46.605,241.9 L12.187,241.9 L12.187,252.655 L0,252.655" id="skyline" stroke="#333333" sketch:type="MSShapeGroup"></path>
    </g>
</svg>