<svg width="14" height="36" viewBox="0 0 14 36" xmlns="http://www.w3.org/2000/svg">
    <title>
        men
    </title>
    <g id="Page-1" fill="none" fill-rule="evenodd">
        <g id="men">
            <path id="bounds" d="M-3-4h20v44H-3z"/>
            <path d="M11.19 19.252v-8.363l-.686-.002-.008 22.694c0 .864-.702 1.568-1.568 1.568-.866 0-1.57-.703-1.57-1.57l.006-13.16h-.7v13.16c0 .867-.703 1.57-1.57 1.57-.866 0-1.57-.703-1.57-1.57l.004-22.69h-.703v8.361c0 1.67-2.206 1.67-2.206.002V10.66c0-2.017 1.24-3.632 3.222-3.632l6.273.003c2.174 0 3.266 1.822 3.266 3.68v8.541c.006 1.684-2.19 1.684-2.19.002zM6.835 6.447c-1.546 0-2.8-1.253-2.8-2.798 0-1.547 1.254-2.8 2.8-2.8 1.545 0 2.8 1.252 2.8 2.8 0 1.544-1.255 2.797-2.8 2.797z" id="Shape" fill="#C1C1C1"/>
        </g>
    </g>
</svg>
