<svg width="208" height="11" viewBox="0 0 208 11" xmlns="http://www.w3.org/2000/svg">
    <title>
        next
    </title>
    <g fill="#FFF" fill-rule="evenodd">
        <path d="M1.846 4H70v1H1.846l2.146 2.356.347.38-.696.764-.347-.38-2.95-3.24-.173-.19L0 4.5l.348-.38L3.298.88 3.643.5l.695.763-.348.38L1.846 4z"/>
        <path d="M91.72 1.17h-6.03v7.12h1.56V2.5h2.91v5.79h1.56V1.17zm2.39 0v7.12h1.55V5.73h1.6c1.43 0 2.53-.72 2.53-2.27 0-1.57-1.07-2.29-2.61-2.29h-3.07zm1.55 1.28h1.4c.69 0 1.21.27 1.21 1.03 0 .79-.52 1.02-1.22 1.02h-1.39V2.45zm11.45-1.28h-5.34v7.12h5.41V6.98h-3.86V5.23h3.48V4h-3.48V2.45h3.79V1.17zm9.07 8.95V6.96h-.79V1.17h-5.07v1.08c0 2.1-.3 3.59-1.14 4.71h-.54v3.16h1.51V8.29h4.52v1.83h1.51zm-2.35-3.16h-2.91c.63-1.15.95-2.45.95-4.4v-.12h1.96v4.52zm9.58-.96c0-1.55-1.1-2.27-2.53-2.27h-1.3V1.17h-1.55v7.12h2.77c1.54 0 2.61-.72 2.61-2.29zm-1.52-.02c0 .76-.46 1.03-1.21 1.03h-1.1V4.96h1.09c.7 0 1.22.27 1.22 1.02zm2.28-4.81v7.12h1.56V1.17h-1.56zm10.86 8.95V6.96h-.79V1.17h-5.07v1.08c0 2.1-.3 3.59-1.14 4.71h-.54v3.16H129V8.29h4.52v1.83h1.51zm-2.35-3.16h-2.91c.63-1.15.95-2.45.95-4.4v-.12h1.96v4.52zm4.53 1.3c.15.06.49.16.87.16 1.15 0 1.71-.56 2.37-2.01l2.4-5.24h-1.67l-1.58 3.75-1.61-3.75h-1.73l2.09 4.4c.14.29.33.61.33.92 0 .32-.24.61-.72.61-.29 0-.56-.08-.75-.16v1.32zm17.53 1.86V6.96h-.79V1.17h-1.56v5.79h-2.37V1.17h-1.56v5.79h-2.37V1.17h-1.56v7.12h8.7v1.83h1.51zm7.07-8.95h-5.34v7.12h5.41V6.98h-3.86V5.23h3.48V4h-3.48V2.45h3.79V1.17zm7.48 0h-5.34v7.12h5.41V6.98h-3.86V5.23h3.48V4h-3.48V2.45h3.79V1.17zm13.33 3.48c0-1.72-1.23-2.72-3.09-2.78v-.7h-1.54v.7c-1.86.06-3.09 1.06-3.09 2.78 0 1.79 1.26 2.79 3.09 2.86v.78h1.54v-.78c1.83-.07 3.09-1.07 3.09-2.86zm-1.5 0c0 .95-.59 1.65-1.59 1.69V3c1.03.04 1.59.64 1.59 1.65zm-3.13 1.69c-1-.04-1.58-.74-1.58-1.69 0-1.01.55-1.61 1.58-1.65v3.34zM187.91 1c-2.13 0-3.53 1.48-3.53 3.74 0 2.23 1.41 3.72 3.52 3.72 2.09 0 3.5-1.5 3.5-3.72 0-2.23-1.41-3.74-3.49-3.74zm-.02 1.28c1.19 0 1.93.93 1.93 2.43 0 1.52-.73 2.46-1.91 2.46-1.21-.01-1.95-.93-1.95-2.46 0-1.48.75-2.43 1.93-2.43zm10.69-1.11h-5.85V2.5h2.14v5.79h1.57V2.5h2.14V1.17zm5.04-.17c-2.13 0-3.53 1.48-3.53 3.74 0 2.23 1.41 3.72 3.52 3.72 2.09 0 3.5-1.5 3.5-3.72 0-2.23-1.41-3.74-3.49-3.74zm-.02 1.28c1.19 0 1.93.93 1.93 2.43 0 1.52-.73 2.46-1.91 2.46-1.21-.01-1.95-.93-1.95-2.46 0-1.48.75-2.43 1.93-2.43z"/>
    </g>
</svg>
