<svg width="1371" height="272" viewBox="0 0 1371 272" xmlns="http://www.w3.org/2000/svg">
    <title>
        skyline
    </title>
    <g id="Page-1" fill="none" fill-rule="evenodd">
        <path d="M1370.096 187.418h-10.68V1h-63.208v188.19h-5.633v-18.817h-38.856V21.287l-7.48-7.473h-68.886v154.81h-27.147v7.802h-6.667V126.18h-4.5V84.24h-5.524V38.15c-3.158 0-3.158-8.51-3.158-8.51h-48.277v9.218h-5.157v44.148l-3.19 3.187v38.1h-4.81v-42.18h-5.804V32.477c-2.72 0-2.72-11.19-2.72-11.19h-53.12v11.196c-2.84 0-2.84 48.213-2.84 48.213l-3.13 3.128v40.13c-3.257 0-3.257 83.674-3.257 83.674h-28.94V155.15c-4.045 0-4.045-3.593-4.045-3.593h-8.413l-.094-15.02h-14.38v4.796h-12.453v12.4h-12.91v-63.11l-10.835-14.37h-25.028l-10.153 14.4v26.916c0 2.127-16.237 16.225-16.237 16.225v29.158H817.52l.122 41.005H789.93l-5.62 5.613h-13.23v-71.518h-9.686v-7.718H749.79v6.38h-14.903v72.857h-27.53v-7.198h-22.554v-72h-7.44v6.343H636.74v64.53h-38.824v43.964h-21.07v-86.244h-9.614v-6.65h-9.768v4.817h-27.578v7.194h-45.52v67.008H480v-20.163h-10.107v-6.937h-21.01v5.572h-7.792v3.315c-2.854 0-16.343-13.478-16.343-13.478l-12.055 12.044c-1.597 0-1.597 9.057-1.597 9.057l-5.857 5.852h-4.26v32.263c-2.307 0-2.307-4.735-2.307-4.735h-9.757v-28.24h-7.753v-4.605h-8.944v-31.736H328.19v-5.318l-10.214-10.206v-12.13h-14.58v3.9h-21.747v8.515h-5.098v4.242c-3.674 0-3.674 80.313-3.674 80.313h-21.254v-17.196H239.21v-28.268h-16.543V198.05H175.65v35.282H90.843v-6.244H67.197v4.294h-6.932v39.66h-13.66V241.9H12.187v10.755H0" id="skyline" stroke="#333"/>
    </g>
</svg>
