<svg width="2600" height="272" viewBox="0 0 2600 272" xmlns="http://www.w3.org/2000/svg">
    <title>
        skyline
    </title>
    <path d="M2600 186.925h-625.432V.507h-63.207v188.19h-5.632V169.88h-38.856V20.794l-7.478-7.473h-68.887v154.812h-27.147v7.8h-6.667v-50.245h-4.5v-41.94h-5.524v-46.09h-3.16v-8.51h-48.276v9.218h-5.158v44.148l-3.19 3.187v38.1h-4.81V81.62h-5.804V31.984h-2.718v-11.19h-53.122V31.99h-2.838V80.2l-3.13 3.128v40.13h-3.258v83.674h-28.94v-52.477h-4.045v-3.593h-8.412l-.094-15.02h-14.382v4.796h-12.452v12.4h-12.91V90.13l-10.835-14.37h-25.028l-10.153 14.4v26.916c0 2.128-16.238 16.226-16.238 16.226v29.158h-35.044l.123 41.005h-27.712l-5.62 5.613h-13.23v-71.52h-9.686v-7.717h-11.604v6.382h-14.903v72.856h-27.53v-7.2h-22.554V129.88h-7.44v6.342h-40.622v64.53h-38.825v43.964H1192v-86.243h-9.615v-6.65h-9.768v4.817h-27.578v7.194h-45.52v67.008h-4.366V210.68h-10.108v-6.938h-21.01v5.572h-7.792v3.315h-2.855l-13.49-13.48-12.055 12.045h-1.597v9.057l-5.857 5.852h-4.26v32.263h-2.306v-4.735h-9.758v-28.24h-7.753v-4.605h-8.944V189.05h-44.027v-5.317l-10.214-10.206v-12.13h-14.582v3.9h-21.746v8.515h-5.097v4.242h-3.674v80.313h-21.253V241.17h-12.414v-28.267H837.82v-15.347h-47.017v35.283h-84.807v-6.245H682.35v4.294h-6.932v39.66h-13.66v-29.143H627.34v10.755H0" stroke="#333" fill="none" fill-rule="evenodd"/>
</svg>
