<?xml version="1.0" encoding="UTF-8" standalone="no"?>
<svg width="55px" height="40px" viewBox="0 0 55 40" version="1.1" xmlns="http://www.w3.org/2000/svg" xmlns:xlink="http://www.w3.org/1999/xlink" xmlns:sketch="http://www.bohemiancoding.com/sketch/ns">
    <!-- Generator: Sketch 3.3.2 (12043) - http://www.bohemiancoding.com/sketch -->
    <title>figure</title>
    <desc>Created with Sketch.</desc>
    <defs></defs>
    <g id="Page-1" stroke="none" stroke-width="1" fill="none" fill-rule="evenodd" sketch:type="MSPage">
        <path d="M55,21 L41,21 L41,40 L40,40 L40,39.626 L25.44,30 L25,30 L16,30 L15,30 L15,29 L15,21 L0,21 L0,19.999 L15,19.999 L15,11 L15,10 L16,10 L25,10 L25.314,10 L40,0.439 L40,0 L41,0 L41,19.999 L55,19.999 L55,21 Z M25,11 L16,11 L16,29 L25,29 L25,11 L25,11 Z M40,1.648 L33.277,6.025 L26,10.762 L26,29.154 L40,38.41 L40,21 L40,19.999 L40,1.648 L40,1.648 Z" id="figure" fill="#333333" sketch:type="MSShapeGroup"></path>
    </g>
</svg>