<?xml version="1.0" encoding="UTF-8" standalone="no"?>
<svg width="45px" height="45px" viewBox="0 0 45 45" version="1.1" xmlns="http://www.w3.org/2000/svg" xmlns:xlink="http://www.w3.org/1999/xlink" xmlns:sketch="http://www.bohemiancoding.com/sketch/ns">
    <!-- Generator: Sketch 3.3 (11970) - http://www.bohemiancoding.com/sketch -->
    <title>target</title>
    <desc>Created with Sketch.</desc>
    <defs></defs>
    <g id="Page-1" stroke="none" stroke-width="1" fill="none" fill-rule="evenodd" sketch:type="MSPage">
        <path d="M34.975,23 C34.717,29.502 29.503,34.716 23,34.974 L23,45 L22,45 L22,34.974 C15.497,34.716 10.283,29.502 10.025,23 L0,23 L0,21.999 L10.025,21.999 C10.283,15.498 15.497,10.283 22,10.025 L22,0 L23,0 L23,10.025 C29.503,10.283 34.717,15.498 34.975,21.999 L45,21.999 L45,23 L34.975,23 L34.975,23 Z M33.975,21.999 C33.719,16.05 28.95,11.281 23,11.025 L23,16 L22,16 L22,11.025 C16.049,11.281 11.281,16.05 11.025,21.999 L16,21.999 L16,23 L11.025,23 C11.281,28.95 16.049,33.718 22,33.974 L22,29 L23,29 L23,33.974 C28.95,33.718 33.719,28.95 33.975,23 L29,23 L29,21.999 L33.975,21.999 L33.975,21.999 Z M22.5,23.5 C21.672,23.5 21,23.052 21,22.5 C21,21.947 21.672,21.5 22.5,21.5 C23.328,21.5 24,21.947 24,22.5 C24,23.052 23.328,23.5 22.5,23.5 L22.5,23.5 Z" id="target" fill="#333333" sketch:type="MSShapeGroup"></path>
    </g>
</svg>