<?xml version="1.0" encoding="UTF-8" standalone="no"?>
<svg width="77px" height="23px" viewBox="0 0 77 23" version="1.1" xmlns="http://www.w3.org/2000/svg" xmlns:xlink="http://www.w3.org/1999/xlink" xmlns:sketch="http://www.bohemiancoding.com/sketch/ns">
    <!-- Generator: Sketch 3.3.2 (12043) - http://www.bohemiancoding.com/sketch -->
    <title>vn-star</title>
    <desc>Created with Sketch.</desc>
    <defs></defs>
    <g id="Page-1" stroke="none" stroke-width="1" fill="none" fill-rule="evenodd" sketch:type="MSPage">
        <path d="M3.782,0.3 L0.341,0.3 L3.689,22 L8.773,22 L12.121,0.3 L8.99,0.3 L6.386,18.001 L3.782,0.3 Z M20.987,22 L24.49,22 L24.49,0.3 L21.452,0.3 L21.452,13.289 L17.949,0.3 L13.671,0.3 L13.671,22 L16.74,22 L16.74,6.283 L20.987,22 Z M36.239,0.145 C33.108,0.176 31.837,2.377 31.837,5.508 C31.837,11.46 40.362,11.15 40.362,16.761 C40.362,19.551 39.308,21.845 36.208,21.845 C33.108,21.845 32.054,19.551 32.054,16.761 L32.054,15.738 L31.744,15.738 L31.744,16.761 C31.744,19.706 32.922,22.155 36.208,22.155 C39.494,22.155 40.672,19.706 40.672,16.761 C40.672,10.902 32.147,11.212 32.147,5.508 C32.147,2.78 33.17,0.455 36.239,0.455 C39.308,0.455 40.331,2.811 40.331,5.539 L40.331,5.911 L40.641,5.911 L40.641,5.539 C40.641,2.625 39.494,0.145 36.239,0.145 L36.239,0.145 Z M47.864,22 L47.864,0.61 L52.762,0.61 L52.762,0.3 L42.656,0.3 L42.656,0.61 L47.554,0.61 L47.554,22 L47.864,22 Z M63.519,16.73 L64.883,22 L65.193,22 L59.582,0.269 L59.148,0.269 L53.661,22 L53.971,22 L55.304,16.73 L63.519,16.73 Z M59.365,0.672 L63.426,16.42 L55.397,16.42 L59.365,0.672 Z M67.673,0.3 L67.673,22 L67.983,22 L67.983,11.832 L70.835,11.832 C73.842,11.832 75.95,12.669 75.95,16.017 L75.95,19.427 C75.95,20.264 76.043,21.287 76.508,22 L76.88,22 C76.353,21.349 76.26,20.233 76.26,19.427 L76.26,16.017 C76.26,13.599 75.144,12.049 72.633,11.708 C75.144,11.336 76.26,9.848 76.26,7.12 L76.26,5.167 C76.26,2.222 75.051,0.3 71.858,0.3 L67.673,0.3 Z M67.983,11.522 L67.983,0.61 L71.858,0.61 C74.865,0.61 75.95,2.377 75.95,5.167 L75.95,7.12 C75.95,10.716 74.059,11.522 70.835,11.522 L67.983,11.522 Z" id="vn-star" fill="#333333" sketch:type="MSShapeGroup"></path>
    </g>
</svg>