<?xml version="1.0" encoding="utf-8"?>
<!-- Generator: Adobe Illustrator 18.1.1, SVG Export Plug-In . SVG Version: 6.00 Build 0)  -->
<!DOCTYPE svg PUBLIC "-//W3C//DTD SVG 1.1//EN" "http://www.w3.org/Graphics/SVG/1.1/DTD/svg11.dtd" [
	<!ENTITY ns_extend "http://ns.adobe.com/Extensibility/1.0/">
	<!ENTITY ns_ai "http://ns.adobe.com/AdobeIllustrator/10.0/">
	<!ENTITY ns_graphs "http://ns.adobe.com/Graphs/1.0/">
	<!ENTITY ns_vars "http://ns.adobe.com/Variables/1.0/">
	<!ENTITY ns_imrep "http://ns.adobe.com/ImageReplacement/1.0/">
	<!ENTITY ns_sfw "http://ns.adobe.com/SaveForWeb/1.0/">
	<!ENTITY ns_custom "http://ns.adobe.com/GenericCustomNamespace/1.0/">
	<!ENTITY ns_adobe_xpath "http://ns.adobe.com/XPath/1.0/">
]>
<svg version="1.1" id="Слой_1" xmlns:x="&ns_extend;" xmlns:i="&ns_ai;" xmlns:graph="&ns_graphs;"
	 xmlns="http://www.w3.org/2000/svg" xmlns:xlink="http://www.w3.org/1999/xlink" x="0px" y="0px" width="20px" height="44px"
	 viewBox="-475 259 20 44" enable-background="new -475 259 20 44" xml:space="preserve">
<metadata>
	<sfw  xmlns="&ns_sfw;">
		<slices></slices>
		<sliceSourceBounds  height="44" width="20" y="-4" x="-3" bottomLeftOrigin="true"></sliceSourceBounds>
	</sfw>
</metadata>
<title>man</title>
<g>
	<path fill="none" d="M-475,259h20v44h-20V259z"/>
	<path fill="#C1C1C1" d="M-460.81,282.252v-8.363l-0.686-0.002l-0.008,22.694c0,0.864-0.702,1.568-1.568,1.568
		s-1.57-0.703-1.57-1.57l0.006-13.16h-0.7v13.16c0,0.867-0.703,1.57-1.57,1.57c-0.866,0-1.57-0.703-1.57-1.57l0.004-22.69h-0.703
		v8.361c0,1.67-2.206,1.67-2.206,0.002v-8.592c0-2.017,1.24-3.632,3.222-3.632l6.273,0.003c2.174,0,3.266,1.822,3.266,3.68v8.541
		c0.006,1.684-2.19,1.684-2.19,0.002V282.252z M-465.165,269.447c-1.546,0-2.8-1.253-2.8-2.798c0-1.547,1.254-2.8,2.8-2.8
		c1.545,0,2.8,1.252,2.8,2.8C-462.365,268.193-463.62,269.446-465.165,269.447L-465.165,269.447z"/>
</g>
</svg>
