<?xml version="1.0" encoding="utf-8"?><!DOCTYPE svg PUBLIC "-//W3C//DTD SVG 1.1//EN" "http://www.w3.org/Graphics/SVG/1.1/DTD/svg11.dtd"><svg version="1.1" baseProfile="full" xmlns="http://www.w3.org/2000/svg" xmlns:xlink="http://www.w3.org/1999/xlink" xmlns:ev="http://www.w3.org/2001/xml-events"   height="193px"   width="1369px" ><path fill="rgb( 51, 51, 51 )" d="M0.999,190.998 C0.999,190.998 1.648,190.998 2.917,190.998 C18.573,190.998 165.6,140.999 316.999,140.999 C467.294,140.999 708.362,40.998 888.354,40.998 C1169.552,40.998 1336.72,0.99800000000005 1366.159,0.99800000000005 C1368.035,0.99800000000005 1368.998,0.99800000000005 1368.998,0.99800000000005 C1368.998,0.99800000000005 1368.998,2.99800000000005 1368.998,2.99800000000005 C1368.998,2.99800000000005 1368.195,2.99800000000005 1366.627,2.99800000000005 C1339.536,2.99800000000005 1171.247,42.998 888.587,42.998 C708.548,42.998 467.404,142.998 317.051,142.998 C165.892,142.998 18.963,192.998 3.001,192.998 C1.676,192.998 0.999,192.998 0.999,192.998 C0.999,192.998 0.999,190.998 0.999,190.998 Z "/></svg>