<?xml version="1.0" encoding="utf-8"?><!DOCTYPE svg PUBLIC "-//W3C//DTD SVG 1.1//EN" "http://www.w3.org/Graphics/SVG/1.1/DTD/svg11.dtd"><svg version="1.1" baseProfile="full" xmlns="http://www.w3.org/2000/svg" xmlns:xlink="http://www.w3.org/1999/xlink" xmlns:ev="http://www.w3.org/2001/xml-events"   height="42px"   width="29px" ><path fill="rgb( 51, 51, 51 )" d="M21.566,14.0030000000006 C21.566,17.7780000000002 18.486,20.8580000000002 14.71,20.8580000000002 C10.9349999999999,20.8580000000002 7.85500000000002,17.7780000000002 7.85500000000002,14.0030000000006 C7.85500000000002,10.2260000000006 10.9349999999999,7.14700000000084 14.71,7.14700000000084 C18.486,7.14700000000084 21.566,10.2260000000006 21.566,14.0030000000006 ZM28.421,14.0030000000006 C28.421,6.42400000000089 22.289,0.29099999999926 14.71,0.29099999999926 C7.13199999999995,0.29099999999926 0.99900000000002,6.42400000000089 0.99900000000002,14.0030000000006 C0.99900000000002,15.6360000000004 1.18700000000001,17.3230000000003 1.88300000000004,18.7960000000003 C1.88300000000004,18.7960000000003 14.71,41.4240000000009 14.71,41.4240000000009 C14.71,41.4240000000009 27.537,18.7960000000003 27.537,18.7960000000003 C28.2329999999999,17.3230000000003 28.421,15.6360000000004 28.421,14.0030000000006 Z "/></svg>