<svg width="115" height="45" viewBox="0 0 115 45" xmlns="http://www.w3.org/2000/svg"><title>logo-mobile</title><g fill="none"><path d="M3.782 1.105h-3.44l3.347 21.7h5.083l3.348-21.7h-3.13l-2.604 17.7-2.604-17.7zm17.205 21.7h3.503v-21.7h-3.038v12.99l-3.502-12.991h-4.28v21.7h3.07v-15.716l4.247 15.717zm15.253-21.855c-3.132.03-4.403 2.232-4.403 5.363 0 5.952 8.525 5.642 8.525 11.253 0 2.79-1.054 5.084-4.154 5.084-3.1 0-4.154-2.294-4.154-5.084v-1.023h-.31v1.023c0 2.945 1.178 5.394 4.464 5.394 3.286 0 4.464-2.45 4.464-5.394 0-5.86-8.525-5.55-8.525-11.253 0-2.728 1.023-5.053 4.092-5.053 3.068 0 4.09 2.356 4.09 5.084v.372h.31v-.372c0-2.914-1.146-5.394-4.4-5.394zm11.624 21.855v-21.39h4.898v-.31h-10.106v.31h4.898v21.39h.31zm15.655-5.27l1.363 5.27h.31l-5.61-21.73h-.435l-5.487 21.73h.31l1.334-5.27h8.215zm-4.155-16.058l4.06 15.748h-8.028l3.968-15.748zm8.308-.372v21.7h.31v-10.168h2.852c3.007 0 5.115.837 5.115 4.185v3.41c0 .837.093 1.86.558 2.573h.372c-.527-.65-.62-1.767-.62-2.573v-3.41c0-2.418-1.116-3.968-3.627-4.31 2.51-.37 3.627-1.86 3.627-4.587v-1.953c0-2.945-1.21-4.867-4.402-4.867h-4.185zm.31 11.222v-10.912h3.875c3.007 0 4.092 1.767 4.092 4.557v1.953c0 3.596-1.89 4.402-5.115 4.402h-2.852z" fill="#333"/><path d="M.54 38.952c0-.448.056-.876.168-1.284.112-.408.288-.768.528-1.08.24-.312.542-.56.906-.744.364-.184.798-.276 1.302-.276.184 0 .402.01.654.03.252.02.51.07.774.15v-2.34l.042-.15.15-.03h.672l.144.03c.032.02.048.07.048.15v8.076c0 .104-.048.176-.144.216-.416.184-.842.302-1.278.354-.436.052-.834.078-1.194.078-.504 0-.93-.074-1.278-.222-.348-.148-.634-.36-.858-.636-.224-.276-.386-.61-.486-1.002-.1-.392-.15-.832-.15-1.32zm1.08 0c0 .424.044.78.132 1.068.088.288.212.522.372.702.16.18.356.31.588.39.232.08.492.12.78.12.2 0 .434-.02.702-.06.268-.04.494-.092.678-.156v-4.344c-.304-.088-.56-.144-.768-.168-.208-.024-.404-.036-.588-.036-.272 0-.524.048-.756.144-.232.096-.432.244-.6.444-.168.2-.3.456-.396.768-.096.312-.144.688-.144 1.128zm9-3.384c.456 0 .85.064 1.182.192.332.128.604.31.816.546.212.236.37.516.474.84.104.324.156.682.156 1.074 0 .192-.024.348-.072.468-.048.12-.114.214-.198.282-.084.068-.18.116-.288.144-.108.028-.222.042-.342.042h-3.444c0 .376.052.696.156.96.104.264.242.478.414.642.172.164.372.282.6.354.228.072.474.108.738.108s.524-.034.78-.102c.256-.068.468-.146.636-.234.096-.056.172-.036.228.06l.252.504c.056.112.032.192-.072.24-.288.176-.598.294-.93.354-.332.06-.658.09-.978.09-.448 0-.85-.064-1.206-.192s-.658-.324-.906-.588c-.248-.264-.438-.6-.57-1.008-.132-.408-.198-.896-.198-1.464 0-.528.07-.998.21-1.41.14-.412.334-.758.582-1.038.248-.28.54-.494.876-.642.336-.148.704-.222 1.104-.222zm1.644 2.748c0-.248-.024-.486-.072-.714-.048-.228-.134-.428-.258-.6s-.292-.308-.504-.408c-.212-.1-.478-.15-.798-.15-.264 0-.498.052-.702.156-.204.104-.376.242-.516.414s-.25.37-.33.594c-.08.224-.128.46-.144.708h3.324zm5.916 3.216c-.064.192-.134.328-.21.408-.076.08-.206.12-.39.12h-.468c-.152 0-.272-.032-.36-.096-.088-.064-.172-.204-.252-.42l-1.968-5.724c-.024-.08.008-.12.096-.12h.804c.088 0 .144.036.168.108l1.128 3.312.6 1.956h.06l.576-1.932 1.092-3.336c.024-.072.08-.108.168-.108h.792c.08 0 .112.04.096.12l-1.932 5.712zm6-5.964c.456 0 .85.064 1.182.192.332.128.604.31.816.546.212.236.37.516.474.84.104.324.156.682.156 1.074 0 .192-.024.348-.072.468-.048.12-.114.214-.198.282-.084.068-.18.116-.288.144-.108.028-.222.042-.342.042h-3.444c0 .376.052.696.156.96.104.264.242.478.414.642.172.164.372.282.6.354.228.072.474.108.738.108s.524-.034.78-.102c.256-.068.468-.146.636-.234.096-.056.172-.036.228.06l.252.504c.056.112.032.192-.072.24-.288.176-.598.294-.93.354-.332.06-.658.09-.978.09-.448 0-.85-.064-1.206-.192s-.658-.324-.906-.588c-.248-.264-.438-.6-.57-1.008-.132-.408-.198-.896-.198-1.464 0-.528.07-.998.21-1.41.14-.412.334-.758.582-1.038.248-.28.54-.494.876-.642.336-.148.704-.222 1.104-.222zm1.644 2.748c0-.248-.024-.486-.072-.714-.048-.228-.134-.428-.258-.6s-.292-.308-.504-.408c-.212-.1-.478-.15-.798-.15-.264 0-.498.052-.702.156-.204.104-.376.242-.516.414s-.25.37-.33.594c-.08.224-.128.46-.144.708h3.324zm5.136 3.444l-.006.138-.114.09c-.136.064-.29.104-.462.12l-.45.024c-.408 0-.694-.098-.858-.294-.164-.196-.246-.498-.246-.906v-7.524c0-.08.016-.13.048-.15l.144-.03h.672l.15.03.042.15v7.224c0 .232.03.386.09.462.06.076.17.114.33.114l.228-.006.204-.018.12.006.048.102.06.468zm6.984-2.94c0 1.072-.242 1.892-.726 2.46-.484.568-1.186.852-2.106.852-.904 0-1.592-.276-2.064-.828-.472-.552-.708-1.368-.708-2.448 0-.528.07-.996.21-1.404.14-.408.336-.752.588-1.032.252-.28.55-.492.894-.636.344-.144.716-.216 1.116-.216.912 0 1.606.288 2.082.864.476.576.714 1.372.714 2.388zm-1.056.036c0-.312-.024-.614-.072-.906-.048-.292-.136-.548-.264-.768-.128-.22-.304-.398-.528-.534-.224-.136-.512-.204-.864-.204-.304 0-.568.064-.792.192-.224.128-.408.3-.552.516-.144.216-.252.468-.324.756-.072.288-.108.592-.108.912 0 .36.028.69.084.99.056.3.152.556.288.768.136.212.314.378.534.498.22.12.498.18.834.18.336 0 .618-.068.846-.204.228-.136.41-.316.546-.54.136-.224.232-.48.288-.768.056-.288.084-.584.084-.888zm8.364-.012c0 .456-.058.882-.174 1.278-.116.396-.288.744-.516 1.044-.228.3-.518.536-.87.708-.352.172-.76.258-1.224.258-.224 0-.466-.012-.726-.036-.26-.024-.538-.08-.834-.168v2.328l-.042.138-.138.03h-.672l-.144-.03-.048-.138v-8.04c0-.104.048-.172.144-.204.4-.176.812-.294 1.236-.354.424-.06.828-.09 1.212-.09.48 0 .896.082 1.248.246.352.164.642.392.87.684.228.292.398.638.51 1.038.112.4.168.836.168 1.308zm-1.092 0c0-.44-.044-.812-.132-1.116-.088-.304-.214-.548-.378-.732-.164-.184-.36-.318-.588-.402-.228-.084-.486-.126-.774-.126-.208 0-.444.02-.708.06-.264.04-.488.096-.672.168v4.32c.304.088.566.146.786.174.22.028.422.042.606.042.272 0 .522-.042.75-.126.228-.084.424-.22.588-.408.164-.188.292-.434.384-.738.092-.304.138-.676.138-1.116zm9.48-3.276c.488 0 .898.07 1.23.21.332.14.602.34.81.6.208.26.358.57.45.93.092.36.138.756.138 1.188v3.336l-.042.138-.138.03h-.66l-.144-.03-.048-.138v-3.168c0-.744-.13-1.29-.39-1.638-.26-.348-.71-.522-1.35-.522l-.39.03-.426.084-.414.126-.354.156c.112.232.186.486.222.762.036.276.054.594.054.954v3.216l-.048.138-.156.03h-.648l-.144-.03-.048-.138v-3.228c0-.328-.026-.622-.078-.882-.052-.26-.146-.48-.282-.66-.136-.18-.322-.318-.558-.414-.236-.096-.542-.144-.918-.144l-.48.018c-.216.012-.42.038-.612.078v5.232l-.042.138-.15.03h-.648l-.15-.03c-.036-.02-.054-.066-.054-.138v-5.22c0-.24.052-.428.156-.564.104-.136.248-.24.432-.312.184-.072.404-.118.66-.138.256-.02.536-.03.84-.03.488 0 .894.052 1.218.156.324.104.614.272.87.504h.012c.296-.208.638-.37 1.026-.486.388-.116.806-.174 1.254-.174zm7.332 0c.456 0 .85.064 1.182.192.332.128.604.31.816.546.212.236.37.516.474.84.104.324.156.682.156 1.074 0 .192-.024.348-.072.468-.048.12-.114.214-.198.282-.084.068-.18.116-.288.144-.108.028-.222.042-.342.042h-3.444c0 .376.052.696.156.96.104.264.242.478.414.642.172.164.372.282.6.354.228.072.474.108.738.108s.524-.034.78-.102c.256-.068.468-.146.636-.234.096-.056.172-.036.228.06l.252.504c.056.112.032.192-.072.24-.288.176-.598.294-.93.354-.332.06-.658.09-.978.09-.448 0-.85-.064-1.206-.192s-.658-.324-.906-.588c-.248-.264-.438-.6-.57-1.008-.132-.408-.198-.896-.198-1.464 0-.528.07-.998.21-1.41.14-.412.334-.758.582-1.038.248-.28.54-.494.876-.642.336-.148.704-.222 1.104-.222zm1.644 2.748c0-.248-.024-.486-.072-.714-.048-.228-.134-.428-.258-.6s-.292-.308-.504-.408c-.212-.1-.478-.15-.798-.15-.264 0-.498.052-.702.156-.204.104-.376.242-.516.414s-.25.37-.33.594c-.08.224-.128.46-.144.708h3.324zm8.064 3.504l-.042.15-.15.03h-.66l-.144-.03c-.032-.02-.048-.07-.048-.15v-3.18c0-.36-.03-.674-.09-.942-.06-.268-.164-.492-.312-.672-.148-.18-.348-.314-.6-.402-.252-.088-.57-.132-.954-.132l-.444.018c-.208.012-.44.038-.696.078v5.232c0 .08-.016.13-.048.15l-.144.03h-.66l-.144-.03c-.032-.02-.048-.07-.048-.15v-5.232c0-.272.054-.482.162-.63.108-.148.306-.242.594-.282l.33-.042.414-.036.42-.024.348-.006c.512 0 .952.056 1.32.168.368.112.67.29.906.534.236.244.41.558.522.942.112.384.168.848.168 1.392v3.216zm1.752-5.292l-.138-.048-.03-.12v-.348c0-.104.056-.172.168-.204l.936-.18.192-1.152.072-.156.144-.084.396-.144.132.006.048.15v1.452h1.332l.138.048.03.132v.48l-.03.132-.138.036h-1.332v3.888c0 .28.062.482.186.606s.33.186.618.186l.438-.03.486-.054.138.006.042.09.108.54.006.12-.102.084c-.232.072-.476.118-.732.138l-.552.03c-.624 0-1.06-.134-1.308-.402s-.372-.682-.372-1.242v-3.96h-.876zm13.38.144c-.232-.08-.476-.134-.732-.162-.256-.028-.476-.042-.66-.042-.28 0-.536.046-.768.138-.232.092-.43.234-.594.426-.164.192-.292.438-.384.738-.092.3-.138.666-.138 1.098 0 .792.156 1.384.468 1.776.312.392.744.588 1.296.588.152 0 .366-.016.642-.048s.566-.096.87-.192v-4.32zm-1.428-1.092c.384 0 .78.028 1.188.084.408.056.792.16 1.152.312.096.04.144.116.144.228v5.304c0 .536-.064.988-.192 1.356-.128.368-.32.676-.576.924-.256.248-.574.44-.954.576-.38.136-.818.24-1.314.312l-.138-.012-.066-.12-.084-.66c0-.088.044-.14.132-.156.344-.048.646-.112.906-.192s.48-.188.66-.324c.18-.136.316-.304.408-.504.092-.2.138-.452.138-.756v-.072c-.256.08-.534.144-.834.192-.3.048-.558.072-.774.072-.472 0-.878-.08-1.218-.24-.34-.16-.622-.38-.846-.66-.224-.28-.388-.616-.492-1.008-.104-.392-.156-.824-.156-1.296 0-.488.058-.938.174-1.35.116-.412.292-.766.528-1.062.236-.296.538-.528.906-.696.368-.168.804-.252 1.308-.252zm8.4 1.584l-.102.066-.102-.054c-.224-.216-.48-.382-.768-.498-.288-.116-.6-.174-.936-.174-.224 0-.46.024-.708.072v5.244c0 .08-.016.13-.048.15l-.144.03h-.66l-.138-.03-.042-.15v-5.28c0-.288.048-.5.144-.636.096-.136.296-.228.6-.276l.468-.042.456-.018c.472 0 .908.064 1.308.192s.768.34 1.104.636c.064.064.068.128.012.192l-.444.576zm6.948 1.656c0 1.072-.242 1.892-.726 2.46-.484.568-1.186.852-2.106.852-.904 0-1.592-.276-2.064-.828-.472-.552-.708-1.368-.708-2.448 0-.528.07-.996.21-1.404.14-.408.336-.752.588-1.032.252-.28.55-.492.894-.636.344-.144.716-.216 1.116-.216.912 0 1.606.288 2.082.864.476.576.714 1.372.714 2.388zm-1.056.036c0-.312-.024-.614-.072-.906-.048-.292-.136-.548-.264-.768-.128-.22-.304-.398-.528-.534-.224-.136-.512-.204-.864-.204-.304 0-.568.064-.792.192-.224.128-.408.3-.552.516-.144.216-.252.468-.324.756-.072.288-.108.592-.108.912 0 .36.028.69.084.99.056.3.152.556.288.768.136.212.314.378.534.498.22.12.498.18.834.18.336 0 .618-.068.846-.204.228-.136.41-.316.546-.54.136-.224.232-.48.288-.768.056-.288.084-.584.084-.888zm2.976-2.988c0-.08.016-.13.048-.15l.144-.03h.66l.144.03c.032.02.048.07.048.15v3.204c0 .36.024.674.072.942.048.268.138.49.27.666.132.176.32.306.564.39.244.084.562.126.954.126l.438-.018c.204-.012.438-.038.702-.078v-5.232l.042-.15.15-.03h.66l.144.03c.032.02.048.07.048.15v5.244c0 .512-.252.816-.756.912l-.372.042-.408.03-.396.018-.336.006c-.52 0-.958-.054-1.314-.162-.356-.108-.646-.28-.87-.516-.224-.236-.386-.544-.486-.924-.1-.38-.15-.842-.15-1.386v-3.264zm12.636 2.976c0 .456-.058.882-.174 1.278-.116.396-.288.744-.516 1.044-.228.3-.518.536-.87.708-.352.172-.76.258-1.224.258-.224 0-.466-.012-.726-.036-.26-.024-.538-.08-.834-.168v2.328l-.042.138-.138.03h-.672l-.144-.03-.048-.138v-8.04c0-.104.048-.172.144-.204.4-.176.812-.294 1.236-.354.424-.06.828-.09 1.212-.09.48 0 .896.082 1.248.246.352.164.642.392.87.684.228.292.398.638.51 1.038.112.4.168.836.168 1.308zm-1.092 0c0-.44-.044-.812-.132-1.116-.088-.304-.214-.548-.378-.732-.164-.184-.36-.318-.588-.402-.228-.084-.486-.126-.774-.126-.208 0-.444.02-.708.06-.264.04-.488.096-.672.168v4.32c.304.088.566.146.786.174.22.028.422.042.606.042.272 0 .522-.042.75-.126.228-.084.424-.22.588-.408.164-.188.292-.434.384-.738.092-.304.138-.676.138-1.116z" fill="#AAA"/></g></svg>