<?xml version="1.0" encoding="utf-8"?>
<!-- Generator: Adobe Illustrator 18.1.1, SVG Export Plug-In . SVG Version: 6.00 Build 0)  -->
<!DOCTYPE svg PUBLIC "-//W3C//DTD SVG 1.1//EN" "http://www.w3.org/Graphics/SVG/1.1/DTD/svg11.dtd" [
	<!ENTITY ns_extend "http://ns.adobe.com/Extensibility/1.0/">
	<!ENTITY ns_ai "http://ns.adobe.com/AdobeIllustrator/10.0/">
	<!ENTITY ns_graphs "http://ns.adobe.com/Graphs/1.0/">
	<!ENTITY ns_vars "http://ns.adobe.com/Variables/1.0/">
	<!ENTITY ns_imrep "http://ns.adobe.com/ImageReplacement/1.0/">
	<!ENTITY ns_sfw "http://ns.adobe.com/SaveForWeb/1.0/">
	<!ENTITY ns_custom "http://ns.adobe.com/GenericCustomNamespace/1.0/">
	<!ENTITY ns_adobe_xpath "http://ns.adobe.com/XPath/1.0/">
]>
<svg version="1.1" id="Слой_1" xmlns:x="&ns_extend;" xmlns:i="&ns_ai;" xmlns:graph="&ns_graphs;"
	 xmlns="http://www.w3.org/2000/svg" xmlns:xlink="http://www.w3.org/1999/xlink" x="0px" y="0px" width="2500px" height="302px"
	 viewBox="-362 130 2500 302" enable-background="new -362 130 2500 302" xml:space="preserve">
<metadata>
	<sfw  xmlns="&ns_sfw;">
		<slices></slices>
		<sliceSourceBounds  height="300.138" width="1370.096" y="1.355" x="0.153" bottomLeftOrigin="true"></sliceSourceBounds>
	</sfw>
</metadata>
<path id="path-1" d="M1574.249,316.925h-10.681V130.507h-63.207v188.19h-5.633V299.88h-38.856V150.794l-7.478-7.473h-59.461h-9.426
	v154.811h-27.147v7.801h-6.667v-50.246h-4.499v-41.939h-5.525v-46.092h-3.158v-8.509h-48.277v9.218h-5.158v44.148l-3.189,3.187v38.1
	h-4.81v-42.179h-5.805v-49.638h-2.718v-11.189h-53.122v11.195h-2.838v48.213l-3.13,3.128v40.129h-3.258v83.675h-28.94v-52.477
	h-4.045v-3.593h-8.413l-0.094-15.019h-14.382v4.795h-12.452v12.401h-12.911V220.13l-10.834-14.37h-25.028l-10.153,14.4
	c0,0,0,24.789,0,26.916c0,2.128-16.238,16.226-16.238,16.226v29.158h-35.044l0.123,41.005h-27.712l-5.619,5.613h-13.23v-71.519
	h-9.687v-7.718h-11.604v6.381H939.04v72.856h-27.529v-7.199h-22.555V259.88h-7.44v6.342h-40.622v64.529h-38.825v43.965H781v-86.243
	h-9.615v-6.65h-9.768v4.817h-27.578v7.194h-45.52v67.008h-4.365v-20.163h-10.108v-6.937h-21.011v5.572h-7.791v3.315h-2.855
	L628.9,329.151l-12.055,12.044h-1.597v9.057l-5.857,5.852h-4.261v32.263h-2.306v-4.735h-9.758v-28.239h-7.753v-4.606h-8.944v-31.736
	h-44.026v-5.318l-10.214-10.206v-12.131h-14.581v3.9h-21.746v8.516h-5.097v4.242h-3.674v80.313h-21.254v-17.196h-12.414v-28.268
	H426.82v-15.347h-47.017v35.283h-84.807v-6.244H271.35v4.294h-6.932v39.661h-13.66v-29.143H216.34v10.755h-12.187v48.483h1370.096
	V316.925z"/>
</svg>
