<svg xmlns="http://www.w3.org/2000/svg" xmlns:xlink="http://www.w3.org/1999/xlink" preserveAspectRatio="xMidYMid" width="1368" height="302" viewBox="0 0 1368 302">
  <defs>
    <style>

      .cls-2 {
        stroke: #333333;
        stroke-width: 1px;
        fill: none;
      }
    </style>
  </defs>
  <path d="M1370.249,186.925 C1370.249,186.925 1359.568,186.925 1359.568,186.925 C1359.568,186.925 1359.568,0.507 1359.568,0.507 C1359.568,0.507 1296.361,0.507 1296.361,0.507 C1296.361,0.507 1296.361,188.697 1296.361,188.697 C1296.361,188.697 1290.728,188.697 1290.728,188.697 C1290.728,188.697 1290.728,169.880 1290.728,169.880 C1290.728,169.880 1251.872,169.880 1251.872,169.880 C1251.872,169.880 1251.872,20.794 1251.872,20.794 C1251.872,20.794 1244.394,13.321 1244.394,13.321 C1244.394,13.321 1184.933,13.321 1184.933,13.321 C1184.933,13.321 1175.507,13.321 1175.507,13.321 C1175.507,13.321 1175.507,168.132 1175.507,168.132 C1175.507,168.132 1148.360,168.132 1148.360,168.132 C1148.360,168.132 1148.360,175.933 1148.360,175.933 C1148.360,175.933 1141.693,175.933 1141.693,175.933 C1141.693,175.933 1141.693,125.687 1141.693,125.687 C1141.693,125.687 1137.194,125.687 1137.194,125.687 C1137.194,125.687 1137.194,83.748 1137.194,83.748 C1137.194,83.748 1131.669,83.748 1131.669,83.748 C1131.669,83.748 1131.669,37.656 1131.669,37.656 C1131.669,37.656 1128.511,37.656 1128.511,37.656 C1128.511,37.656 1128.511,29.147 1128.511,29.147 C1128.511,29.147 1080.234,29.147 1080.234,29.147 C1080.234,29.147 1080.234,38.365 1080.234,38.365 C1080.234,38.365 1075.076,38.365 1075.076,38.365 C1075.076,38.365 1075.076,82.513 1075.076,82.513 C1075.076,82.513 1071.887,85.700 1071.887,85.700 C1071.887,85.700 1071.887,123.800 1071.887,123.800 C1071.887,123.800 1067.077,123.800 1067.077,123.800 C1067.077,123.800 1067.077,81.621 1067.077,81.621 C1067.077,81.621 1061.272,81.621 1061.272,81.621 C1061.272,81.621 1061.272,31.983 1061.272,31.983 C1061.272,31.983 1058.554,31.983 1058.554,31.983 C1058.554,31.983 1058.554,20.794 1058.554,20.794 C1058.554,20.794 1005.432,20.794 1005.432,20.794 C1005.432,20.794 1005.432,31.989 1005.432,31.989 C1005.432,31.989 1002.594,31.989 1002.594,31.989 C1002.594,31.989 1002.594,80.202 1002.594,80.202 C1002.594,80.202 999.464,83.330 999.464,83.330 C999.464,83.330 999.464,123.459 999.464,123.459 C999.464,123.459 996.206,123.459 996.206,123.459 C996.206,123.459 996.206,207.134 996.206,207.134 C996.206,207.134 967.266,207.134 967.266,207.134 C967.266,207.134 967.266,154.657 967.266,154.657 C967.266,154.657 963.221,154.657 963.221,154.657 C963.221,154.657 963.221,151.064 963.221,151.064 C963.221,151.064 954.808,151.064 954.808,151.064 C954.808,151.064 954.714,136.045 954.714,136.045 C954.714,136.045 940.332,136.045 940.332,136.045 C940.332,136.045 940.332,140.840 940.332,140.840 C940.332,140.840 927.880,140.840 927.880,140.840 C927.880,140.840 927.880,153.241 927.880,153.241 C927.880,153.241 914.969,153.241 914.969,153.241 C914.969,153.241 914.969,90.130 914.969,90.130 C914.969,90.130 904.135,75.760 904.135,75.760 C904.135,75.760 879.107,75.760 879.107,75.760 C879.107,75.760 868.954,90.160 868.954,90.160 C868.954,90.160 868.954,114.949 868.954,117.076 C868.954,119.204 852.716,133.302 852.716,133.302 C852.716,133.302 852.716,162.460 852.716,162.460 C852.716,162.460 817.672,162.460 817.672,162.460 C817.672,162.460 817.795,203.465 817.795,203.465 C817.795,203.465 790.083,203.465 790.083,203.465 C790.083,203.465 784.464,209.078 784.464,209.078 C784.464,209.078 771.234,209.078 771.234,209.078 C771.234,209.078 771.234,137.559 771.234,137.559 C771.234,137.559 761.547,137.559 761.547,137.559 C761.547,137.559 761.547,129.841 761.547,129.841 C761.547,129.841 749.943,129.841 749.943,129.841 C749.943,129.841 749.943,136.222 749.943,136.222 C749.943,136.222 735.040,136.222 735.040,136.222 C735.040,136.222 735.040,209.078 735.040,209.078 C735.040,209.078 707.511,209.078 707.511,209.078 C707.511,209.078 707.511,201.879 707.511,201.879 C707.511,201.879 684.956,201.879 684.956,201.879 C684.956,201.879 684.956,129.880 684.956,129.880 C684.956,129.880 677.516,129.880 677.516,129.880 C677.516,129.880 677.516,136.222 677.516,136.222 C677.516,136.222 636.894,136.222 636.894,136.222 C636.894,136.222 636.894,200.751 636.894,200.751 C636.894,200.751 598.069,200.751 598.069,200.751 C598.069,200.751 598.069,244.716 598.069,244.716 C598.069,244.716 577.000,244.716 577.000,244.716 C577.000,244.716 577.000,158.473 577.000,158.473 C577.000,158.473 567.385,158.473 567.385,158.473 C567.385,158.473 567.385,151.823 567.385,151.823 C567.385,151.823 557.617,151.823 557.617,151.823 C557.617,151.823 557.617,156.640 557.617,156.640 C557.617,156.640 530.039,156.640 530.039,156.640 C530.039,156.640 530.039,163.834 530.039,163.834 C530.039,163.834 484.519,163.834 484.519,163.834 C484.519,163.834 484.519,230.842 484.519,230.842 C484.519,230.842 480.154,230.842 480.154,230.842 C480.154,230.842 480.154,210.679 480.154,210.679 C480.154,210.679 470.046,210.679 470.046,210.679 C470.046,210.679 470.046,203.742 470.046,203.742 C470.046,203.742 449.035,203.742 449.035,203.742 C449.035,203.742 449.035,209.314 449.035,209.314 C449.035,209.314 441.244,209.314 441.244,209.314 C441.244,209.314 441.244,212.629 441.244,212.629 C441.244,212.629 438.389,212.629 438.389,212.629 C438.389,212.629 424.900,199.151 424.900,199.151 C424.900,199.151 412.845,211.195 412.845,211.195 C412.845,211.195 411.248,211.195 411.248,211.195 C411.248,211.195 411.248,220.252 411.248,220.252 C411.248,220.252 405.391,226.104 405.391,226.104 C405.391,226.104 401.130,226.104 401.130,226.104 C401.130,226.104 401.130,258.367 401.130,258.367 C401.130,258.367 398.824,258.367 398.824,258.367 C398.824,258.367 398.824,253.632 398.824,253.632 C398.824,253.632 389.066,253.632 389.066,253.632 C389.066,253.632 389.066,225.393 389.066,225.393 C389.066,225.393 381.313,225.393 381.313,225.393 C381.313,225.393 381.313,220.787 381.313,220.787 C381.313,220.787 372.369,220.787 372.369,220.787 C372.369,220.787 372.369,189.051 372.369,189.051 C372.369,189.051 328.343,189.051 328.343,189.051 C328.343,189.051 328.343,183.733 328.343,183.733 C328.343,183.733 318.129,173.527 318.129,173.527 C318.129,173.527 318.129,161.396 318.129,161.396 C318.129,161.396 303.548,161.396 303.548,161.396 C303.548,161.396 303.548,165.296 303.548,165.296 C303.548,165.296 281.802,165.296 281.802,165.296 C281.802,165.296 281.802,173.812 281.802,173.812 C281.802,173.812 276.705,173.812 276.705,173.812 C276.705,173.812 276.705,178.054 276.705,178.054 C276.705,178.054 273.031,178.054 273.031,178.054 C273.031,178.054 273.031,258.367 273.031,258.367 C273.031,258.367 251.777,258.367 251.777,258.367 C251.777,258.367 251.777,241.171 251.777,241.171 C251.777,241.171 239.363,241.171 239.363,241.171 C239.363,241.171 239.363,212.903 239.363,212.903 C239.363,212.903 222.820,212.903 222.820,212.903 C222.820,212.903 222.820,197.556 222.820,197.556 C222.820,197.556 175.803,197.556 175.803,197.556 C175.803,197.556 175.803,232.839 175.803,232.839 C175.803,232.839 90.996,232.839 90.996,232.839 C90.996,232.839 90.996,226.595 90.996,226.595 C90.996,226.595 67.350,226.595 67.350,226.595 C67.350,226.595 67.350,230.889 67.350,230.889 C67.350,230.889 60.418,230.889 60.418,230.889 C60.418,230.889 60.418,270.550 60.418,270.550 C60.418,270.550 46.758,270.550 46.758,270.550 C46.758,270.550 46.758,241.407 46.758,241.407 C46.758,241.407 12.340,241.407 12.340,241.407 C12.340,241.407 12.340,252.162 12.340,252.162 C12.340,252.162 0.153,252.162 0.153,252.162 C0.153,252.162 0.153,300.645 0.153,300.645 C0.153,300.645 1370.249,300.645 1370.249,300.645 C1370.249,300.645 1370.249,186.925 1370.249,186.925 Z" id="path-1" class="cls-2" fill-rule="evenodd"/>
</svg>
