<?xml version="1.0" encoding="UTF-8" standalone="no"?>
<svg width="117px" height="23px" viewBox="0 0 117 23" version="1.1" xmlns="http://www.w3.org/2000/svg" xmlns:xlink="http://www.w3.org/1999/xlink" xmlns:sketch="http://www.bohemiancoding.com/sketch/ns">
    <!-- Generator: Sketch 3.3 (11970) - http://www.bohemiancoding.com/sketch -->
    <title>star-centre</title>
    <desc>Created with Sketch.</desc>
    <defs></defs>
    <g id="Page-1" stroke="none" stroke-width="1" fill="none" fill-rule="evenodd" sketch:type="MSPage">
        <path d="M0.093,5.456 C0.093,11.656 6.758,12.493 6.758,16.957 C6.758,18.507 6.076,19.065 4.991,19.065 C3.906,19.065 3.224,18.507 3.224,16.957 L3.224,15.407 L2.84217094e-14,15.407 L2.84217094e-14,16.74 C2.84217094e-14,20.212 1.736,22.196 5.084,22.196 C8.432,22.196 10.168,20.212 10.168,16.74 C10.168,10.54 3.503,9.703 3.503,5.239 C3.503,3.689 4.123,3.1 5.208,3.1 C6.293,3.1 6.913,3.689 6.913,5.239 L6.913,6.138 L10.137,6.138 L10.137,5.456 C10.137,1.984 8.432,-2.84217094e-14 5.115,-2.84217094e-14 C1.798,-2.84217094e-14 0.093,1.984 0.093,5.456 L0.093,5.456 Z M11.129,3.348 L14.694,3.348 L14.694,21.948 L18.104,21.948 L18.104,3.348 L21.669,3.348 L21.669,0.248 L11.129,0.248 L11.129,3.348 Z M29.543,0.248 L24.552,0.248 L21.08,21.948 L24.211,21.948 L24.8,18.011 L28.985,18.011 L29.574,21.948 L33.015,21.948 L29.543,0.248 Z M26.877,4.092 L28.52,15.066 L25.234,15.066 L26.877,4.092 Z M45.198,21.948 C44.857,21.142 44.826,20.367 44.826,19.313 L44.826,15.965 C44.826,13.702 44.268,12.059 42.563,11.346 C44.082,10.633 44.795,9.176 44.795,6.944 L44.795,5.239 C44.795,1.891 43.276,0.248 39.742,0.248 L34.596,0.248 L34.596,21.948 L38.006,21.948 L38.006,13.113 L39.184,13.113 C40.734,13.113 41.416,13.857 41.416,15.872 L41.416,19.282 C41.416,21.049 41.54,21.39 41.726,21.948 L45.198,21.948 Z M39.649,3.348 C40.858,3.348 41.385,4.03 41.385,5.58 L41.385,7.719 C41.385,9.455 40.61,10.013 39.339,10.013 L38.006,10.013 L38.006,3.348 L39.649,3.348 Z M56.327,0.093 C53.041,0.093 51.863,2.666 51.863,5.58 L51.863,16.616 C51.863,19.53 53.041,22.103 56.327,22.103 C59.613,22.103 60.791,19.53 60.791,16.616 L60.791,14.322 L60.481,14.322 L60.481,16.616 C60.481,19.375 59.427,21.793 56.327,21.793 C53.227,21.793 52.173,19.375 52.173,16.616 L52.173,5.58 C52.173,2.821 53.227,0.403 56.327,0.403 C59.427,0.403 60.481,2.821 60.481,5.58 L60.481,7.223 L60.791,7.223 L60.791,5.58 C60.791,2.666 59.613,0.093 56.327,0.093 L56.327,0.093 Z M63.581,10.788 L63.581,0.558 L71.393,0.558 L71.393,0.248 L63.271,0.248 L63.271,21.948 L71.393,21.948 L71.393,21.638 L63.581,21.638 L63.581,11.098 L70.184,11.098 L70.184,10.788 L63.581,10.788 Z M74.183,0.558 L82.429,21.948 L82.894,21.948 L82.894,0.248 L82.584,0.248 L82.584,21.545 L74.4,0.248 L73.873,0.248 L73.873,21.948 L74.183,21.948 L74.183,0.558 Z M89.962,21.948 L89.962,0.558 L94.86,0.558 L94.86,0.248 L84.754,0.248 L84.754,0.558 L89.652,0.558 L89.652,21.948 L89.962,21.948 Z M96.813,0.248 L96.813,21.948 L97.123,21.948 L97.123,11.78 L99.975,11.78 C102.982,11.78 105.09,12.617 105.09,15.965 L105.09,19.375 C105.09,20.212 105.183,21.235 105.648,21.948 L106.02,21.948 C105.493,21.297 105.4,20.181 105.4,19.375 L105.4,15.965 C105.4,13.547 104.284,11.997 101.773,11.656 C104.284,11.284 105.4,9.796 105.4,7.068 L105.4,5.115 C105.4,2.17 104.191,0.248 100.998,0.248 L96.813,0.248 Z M97.123,11.47 L97.123,0.558 L100.998,0.558 C104.005,0.558 105.09,2.325 105.09,5.115 L105.09,7.068 C105.09,10.664 103.199,11.47 99.975,11.47 L97.123,11.47 Z M108.81,10.788 L108.81,0.558 L116.622,0.558 L116.622,0.248 L108.5,0.248 L108.5,21.948 L116.622,21.948 L116.622,21.638 L108.81,21.638 L108.81,11.098 L115.413,11.098 L115.413,10.788 L108.81,10.788 Z" id="star-centre" fill="#333333" sketch:type="MSShapeGroup"></path>
    </g>
</svg>