<svg width="77" height="23" viewBox="0 0 77 23" xmlns="http://www.w3.org/2000/svg" xmlns:sketch="http://www.bohemiancoding.com/sketch/ns"><title>vn-star</title><desc>Created with Sketch.</desc><path d="M3.782.3h-3.441l3.348 21.7h5.084l3.348-21.7h-3.131l-2.604 17.701-2.604-17.701zm17.205 21.7h3.503v-21.7h-3.038v12.989l-3.503-12.989h-4.278v21.7h3.069v-15.717l4.247 15.717zm15.252-21.855c-3.131.031-4.402 2.232-4.402 5.363 0 5.952 8.525 5.642 8.525 11.253 0 2.79-1.054 5.084-4.154 5.084-3.1 0-4.154-2.294-4.154-5.084v-1.023h-.31v1.023c0 2.945 1.178 5.394 4.464 5.394 3.286 0 4.464-2.449 4.464-5.394 0-5.859-8.525-5.549-8.525-11.253 0-2.728 1.023-5.053 4.092-5.053s4.092 2.356 4.092 5.084v.372h.31v-.372c0-2.914-1.147-5.394-4.402-5.394zm11.625 21.855v-21.39h4.898v-.31h-10.106v.31h4.898v21.39h.31zm15.655-5.27l1.364 5.27h.31l-5.611-21.731h-.434l-5.487 21.731h.31l1.333-5.27h8.215zm-4.154-16.058l4.061 15.748h-8.029l3.968-15.748zm8.308-.372v21.7h.31v-10.168h2.852c3.007 0 5.115.837 5.115 4.185v3.41c0 .837.093 1.86.558 2.573h.372c-.527-.651-.62-1.767-.62-2.573v-3.41c0-2.418-1.116-3.968-3.627-4.309 2.511-.372 3.627-1.86 3.627-4.588v-1.953c0-2.945-1.209-4.867-4.402-4.867h-4.185zm.31 11.222v-10.912h3.875c3.007 0 4.092 1.767 4.092 4.557v1.953c0 3.596-1.891 4.402-5.115 4.402h-2.852z" fill="#333" sketch:type="MSShapeGroup"/></svg>